<svg xmlns="http://www.w3.org/2000/svg" width="160" height="48" fill="none" viewBox="0 0 160 48"><g clip-path="url(#clip0_2069_766)"><path fill="#7a7c7f" fill-rule="evenodd" d="M42.255 34.2361C42.198 33.6668 42.5396 30.8203 42.5396 30.8203C43.5763 30.9912 44.6216 31.1052 45.6708 31.1619C45.6708 31.1619 45.1015 33.2683 45.4431 33.7522C46.2401 34.8908 50.5668 37.652 51.5347 38.7621C52.0186 39.246 52.5309 39.73 53.1572 40.1569C53.5842 40.527 55.0074 40.5555 55.3775 40.9255C55.6052 41.2102 55.9183 41.9787 55.776 42.121C55.6621 42.2064 53.5272 42.2634 53.1572 42.2064C52.7302 42.2064 52.2463 41.8079 52.2463 41.8079C52.2463 41.8079 51.9616 42.0926 51.5347 41.8933C50.7946 41.5233 50.9084 40.7547 50.4814 40.1569C50.1968 39.9007 46.6101 37.5381 44.276 36.2287C42.2834 35.0901 42.3403 35.0901 42.2834 34.2361H42.255ZM27.8515 26.9206C27.4245 26.522 25.8304 27.8884 25.3465 27.803C24.8911 27.6891 25.3465 26.579 24.948 26.6644C24.3787 26.7213 24.2364 28.0307 23.7525 28.1161C22.9554 28.4007 22.5 27.2337 22.5 25.8104C22.5 24.3871 23.0124 22.8215 24.7203 21.8253C26.4567 20.8574 29.0186 20.6012 30.9827 21.2559C32.8899 20.2597 35.3663 17.3277 40.8886 17.2139C46.4109 17.0715 48.4604 19.8042 49.6275 19.1495C50.823 18.4948 51.2215 17.0146 50.9653 15.9045C50.453 13.7696 49.5421 12.6309 48.745 10.7238C48.2896 9.55669 48.2611 7.96263 48.8589 6.82401C49.1436 6.31164 49.7698 5.71387 50.7661 5.6C51.7624 5.48614 52.0186 6.3401 52.7017 6.53936C53.3849 6.76708 54.8651 6.90941 54.979 7.45025C55.0928 7.96263 53.328 8.38961 52.9295 8.33268C51.9901 8.24728 51.3923 8.87352 51.4493 9.98367C51.5062 11.4069 51.8478 11.8908 53.1572 13.9119C54.4666 15.9329 54.4381 19.2918 52.7871 21.626C52.2463 22.3092 51.677 22.9069 51.3069 23.6755C51.0223 24.3017 51.3069 23.0493 51.3069 25.5257C51.3069 28.0307 50.0545 29.2262 48.4035 29.7956C46.1832 30.4787 44.2475 30.2225 42.2834 29.9948C39.5792 29.6532 37.4443 29.7102 36.3342 29.9948C35.3948 30.2225 32.3775 31.9305 32.0074 32.699C31.458 34.6273 30.9738 36.5735 30.5557 38.5344C30.4703 38.9329 30.5272 39.73 30.328 40.1C30.1287 40.4701 27.6522 42.0356 26.8267 42.3772C26.4282 42.4911 25.6597 42.6904 25.5458 42.548C25.005 41.9218 25.005 41.7795 26.599 40.6408C26.0297 39.5022 27.6522 39.2176 28.1077 38.6483C28.62 38.022 29.5594 31.3042 29.901 30.4218C30.1856 29.5678 31.4666 29.2547 31.9505 28.4861C31.7228 28.2015 31.3812 28.3438 30.5272 28.6C29.7587 28.7993 28.1931 29.3686 27.8515 29.0839C27.5099 28.7993 28.2785 27.2906 27.8515 26.9206ZM71.1473 22.9639H66.0235V9.9552H71.1188C75.1609 9.9552 77.9505 12.5455 77.9505 16.4453C77.9505 20.3735 75.1609 22.9639 71.1188 22.9639H71.1473ZM71.1188 20.5158C73.6807 20.5158 75.1609 18.6656 75.1609 16.4453C75.1609 14.1681 73.7376 12.4032 71.1473 12.4032H68.7847V20.5158H71.1188ZM84.2129 23.1916C81.3948 23.1916 79.2599 21.2559 79.2599 18.2386C79.2599 15.5059 81.2525 13.3141 84.099 13.3141C86.8886 13.3141 88.7673 15.4205 88.7673 18.4663V19.0356H81.8218C81.9926 20.2027 82.9319 21.1705 84.4975 21.1705C85.2946 21.1705 86.3762 20.829 86.974 20.2312L88.0842 21.8822C87.1448 22.7361 85.6931 23.1916 84.2413 23.1916H84.2129ZM86.4047 17.3277C86.3193 16.4453 85.7215 15.3352 84.0705 15.3352C83.5058 15.3037 82.9513 15.4946 82.5256 15.8671C82.1 16.2395 81.8371 16.7638 81.7933 17.3277H86.4047ZM93.1795 23.1916C91.4715 23.1916 90.5322 22.2807 90.5322 20.6012V9.9552H92.9802V19.9181C92.9802 20.5443 93.2933 20.9713 93.8342 20.9713C94.2042 20.9713 94.5458 20.8574 94.6881 20.6866L95.229 22.5938C94.8589 22.9069 94.1757 23.1631 93.1795 23.1631V23.1916ZM97.5062 12.5171C96.7092 12.5171 96.0829 11.8624 96.0829 11.0369C96.0829 10.2399 96.7092 9.58515 97.5062 9.58515C98.3317 9.58515 98.9864 10.2399 98.9864 11.0369C98.9864 11.8908 98.3317 12.5171 97.5062 12.5171ZM98.7871 22.9639H96.3391V13.5418H98.7871V22.9354V22.9639ZM106.274 22.9639H103.626L99.8688 13.5418H102.516L104.936 20.0889L107.412 13.5418H110.031L106.274 22.9354V22.9639ZM115.525 23.1916C112.678 23.1916 110.543 21.2559 110.543 18.2386C110.543 15.5059 112.536 13.3141 115.382 13.3141C118.172 13.3141 120.051 15.4205 120.051 18.4663V19.0356H113.105C113.276 20.2027 114.215 21.1705 115.781 21.1705C116.578 21.1705 117.66 20.829 118.257 20.2312L119.368 21.8822C118.428 22.7361 116.976 23.1916 115.525 23.1916ZM117.688 17.3277C117.603 16.4453 116.976 15.3352 115.354 15.3352C114.789 15.3037 114.235 15.4946 113.809 15.8671C113.383 16.2395 113.121 16.7638 113.077 17.3277H117.688ZM124.235 22.9639H121.787V13.5418H124.235V14.7943C124.918 13.9973 126.057 13.3141 127.224 13.3141V15.7337C126.999 15.6897 126.77 15.6707 126.541 15.6767C125.744 15.6767 124.662 16.1322 124.264 16.73V22.9639H124.235ZM132.547 26.7782C130.981 26.7782 129.7 26.3228 128.619 25.355L129.757 23.5901C130.412 24.4156 131.551 24.7287 132.547 24.7287C134.113 24.7287 135.052 23.647 135.052 22.3376V21.3413C134.397 22.053 133.287 22.7646 131.75 22.7646C129.7 22.7646 128.733 21.626 128.733 19.8042V13.5703H131.209V18.8649C131.209 20.1743 131.864 20.6012 132.917 20.6012C133.856 20.6012 134.625 20.0889 135.052 19.5196V13.5418H137.5V22.3661C137.5 25.1842 135.507 26.8067 132.547 26.8067V26.7782ZM72.0866 40.897C68.1869 40.897 65.198 38.1644 65.198 34.1792C65.198 30.1656 68.1869 27.4614 72.0866 27.4614C74.9047 27.4614 76.5557 28.9985 77.4381 30.621L75.104 31.7881C74.5347 30.7349 73.396 29.9094 72.0866 29.9094C69.724 29.9094 68.0161 31.7312 68.0161 34.1792C68.0161 36.6272 69.724 38.449 72.0866 38.449C73.396 38.449 74.5631 37.5951 75.104 36.5418L77.4381 37.6805C76.5557 39.3314 74.8762 40.897 72.0866 40.897ZM81.8787 40.897C80.1708 40.897 79.2599 40.0146 79.2599 38.3067V27.6606H81.7079V37.6235C81.7079 38.2498 81.9926 38.7052 82.5619 38.7052C82.9319 38.7052 83.2735 38.5629 83.4158 38.4206L83.9282 40.2993C83.5582 40.6124 82.875 40.897 81.8787 40.897ZM93.7772 40.6693H91.3007V39.4738C90.6745 40.1854 89.5644 40.897 88.0272 40.897C85.9777 40.897 85.0099 39.7584 85.0099 37.9366V31.2473H87.4579V36.9404C87.4579 38.2782 88.1411 38.7052 89.1658 38.7052C90.1337 38.7052 90.8738 38.1644 91.3007 37.6235V31.2473H93.7772V40.6408V40.6693ZM98.6448 37.652C98.8996 37.9757 99.2235 38.2383 99.5929 38.4205C99.9623 38.6027 100.368 38.7 100.78 38.7052C102.203 38.7052 103.142 37.5666 103.142 35.9441C103.142 34.3215 102.203 33.2114 100.78 33.2114C99.9827 33.2114 99.0718 33.6953 98.6448 34.3215V37.652ZM98.6448 40.6693H96.2252V27.6606H98.6733V32.4713C99.4134 31.475 100.467 31.0196 101.577 31.0196C103.939 31.0196 105.704 32.8983 105.704 35.9441C105.704 39.1037 103.911 40.897 101.577 40.897C100.438 40.897 99.4134 40.3847 98.6733 39.4738V40.6693H98.6448Z" clip-rule="evenodd"/></g><defs><clipPath id="clip0_2069_766"><path fill="#fff" d="M0 0H115V37.005H0z" transform="translate(22.5 5.598)"/></clipPath></defs></svg>