<svg xmlns="http://www.w3.org/2000/svg" width="160" height="48" fill="none" viewBox="0 0 160 48"><path fill="#777" fill-rule="evenodd" d="M50.936 18.686H48.687C44.19 18.686 40.305 30.178 45.621 30.178H49.028C51.004 30.178 52.504 30.94 51.822 32.878L50.936 35.578H47.324 44.394C40.646 35.509 38.193 33.64 37.307 30.801 36.353 27.686 37.715 21.248 41.6 17.163 43.849 14.74 46.984 13.355 51.004 13.355H58.433L57.274 16.748C56.524 18.963 55.025 18.755 54.139 18.755L50.936 18.686ZM91.891 21.731C88.484 21.731 83.373 21.731 79.965 21.731 77.989 21.731 77.103 22.285 76.762 23.462L75.672 27.131C79.079 27.131 84.19 27.131 87.598 27.131 89.574 27.131 90.46 26.578 90.801 25.401L91.891 21.731ZM94.688 13.286C91.281 13.286 86.17 13.286 82.762 13.286 80.786 13.286 79.9 13.84 79.559 15.016L78.469 18.686C81.876 18.686 86.987 18.686 90.395 18.686 92.371 18.686 93.257 18.132 93.598 16.955L94.688 13.286ZM89.032 30.247C85.624 30.247 80.513 30.247 77.106 30.247 75.13 30.247 74.244 30.801 73.903 31.978L72.813 35.647C76.22 35.647 81.331 35.647 84.738 35.647 86.715 35.647 87.601 35.093 87.941 33.916L89.032 30.247ZM64.701 18.686H67.7C70.222 18.686 69.676 21.871 68.382 25.055 67.223 27.825 65.247 30.248 62.862 30.248H57.887C55.91 30.248 55.025 30.802 54.616 31.978L53.389 35.648H57.001 60.545C63.679 35.648 66.269 35.371 69.267 32.671 72.47 29.763 76.15 22.217 75.537 17.855 75.06 14.463 73.22 13.425 68.859 13.425H60.885L56.251 27.271H59.182C60.953 27.271 61.839 27.271 62.725 24.709L64.701 18.686ZM89.92 35.578H95.576L98.03 28.586 100.551 26.44 102.527 32.809C103.141 34.747 103.754 35.647 105.117 35.647H109.41L104.981 23.186 115.68 13.355H108.729L102.255 20.347C101.505 21.178 100.755 21.94 99.938 22.909H99.87L103.141 13.286H97.484L89.92 35.578ZM131.42 35.647H134.077L137.757 15.847H144.163L144.64 13.493H129.171L128.694 15.847H135.031L131.42 35.647ZM123.514 13.493 119.357 35.647H122.015L126.172 13.493H123.514Z" clip-rule="evenodd"/><path fill="url(#paint0_radial_2069_852)" d="M16.4603 34.3181C23.4333 34.3181 29.1452 28.5909 29.1452 21.4318C29.1452 14.348 23.5074 8.54541 16.4603 8.54541C9.4873 8.54541 3.77539 14.348 3.77539 21.4318C3.77539 28.5155 9.4873 34.3181 16.4603 34.3181Z"/><path fill="#8c8c8c" fill-rule="evenodd" d="M14.133 20.208C15.7685 20.5541 17.3359 20.7618 19.0396 20.8311C21.9019 20.9003 25.1048 20.8311 28.9211 20.8311H30.2841C30.6248 20.8311 30.693 21.1772 30.3522 21.3157L29.1256 21.6618C21.97 23.8772 16.5863 26.5772 12.7019 33.0849C12.5656 33.3618 12.293 33.1541 12.293 32.9465C12.7019 29.9003 13.1789 27.408 14.5419 24.6388C13.7241 23.5311 13.9967 22.2849 13.1789 20.4157C13.1107 20.1388 13.0426 20.0003 12.9063 19.9311C12.8382 19.5849 12.9744 19.5157 13.247 19.5849C13.8604 19.7926 13.3833 20.0695 14.133 20.208Z" clip-rule="evenodd"/><path fill="#656565" fill-rule="evenodd" d="M14.135 20.2074C15.7705 20.5536 17.3379 20.7613 19.0416 20.8305C21.6313 20.8997 24.4253 20.8305 27.6965 20.8305C21.2905 22.9767 16.1113 25.8843 12.4313 31.6997C12.8402 29.2074 13.3172 26.992 14.4076 24.6382C14.2713 24.3613 13.9987 24.0843 13.8624 23.8074C13.9305 23.7382 13.9305 23.669 13.9987 23.4613C13.249 22.4228 12.3631 21.2459 11.6816 19.6536C11.6816 19.5151 11.8179 19.3767 12.0224 19.5151C12.7039 19.7228 13.3853 20.069 14.135 20.2074Z" clip-rule="evenodd"/><path fill="#8c8c8c" fill-rule="evenodd" d="M12.9787 18.0616C14.6143 18.4078 16.1817 18.6155 17.8854 18.6847C20.7476 18.754 23.9506 18.6847 27.7669 18.6847H29.1298C29.4706 18.6847 29.5387 19.0309 29.198 19.1693L27.9713 19.5155C20.8158 21.6616 15.2276 24.7078 11.275 31.354C11.1387 31.6309 10.8661 31.6309 10.8661 31.2847C11.4113 28.3078 11.9565 25.2616 13.3195 22.4924C12.5017 21.3847 11.5476 20.0693 10.7298 18.2693C10.6617 17.9924 10.5935 17.9232 10.5254 17.7847C10.5254 17.3693 10.798 17.3001 11.0024 17.3693C11.2069 17.5078 12.2972 17.9232 12.9787 18.0616Z" clip-rule="evenodd"/><defs><radialGradient id="paint0_radial_2069_852" cx="0" cy="0" r="1" gradientTransform="matrix(12.6637 0 0 12.8648 16.472 21.444)" gradientUnits="userSpaceOnUse"><stop stop-color="#a1a1a1" stop-opacity="0.6"/><stop offset="1" stop-color="#d1d1d1" stop-opacity="0"/></radialGradient></defs></svg>