<svg xmlns="http://www.w3.org/2000/svg" width="160" height="48" fill="none" viewBox="0 0 160 48"><g clip-path="url(#clip0_3001_1145)"><path fill="url(#paint0_radial_3001_1145)" d="M50.1154 26.5546C48.4624 28.4242 45.6394 28.5712 43.8079 26.8838C41.9764 25.1979 41.8294 22.313 43.4794 20.4433C45.1324 18.5737 47.9569 18.4282 49.7884 20.1141C51.6199 21.8031 51.7669 24.6849 50.1154 26.5546Z"/><path fill="url(#paint1_linear_3001_1145)" d="M34.0115 6.16137C31.0895 8.41078 28.754 11.4136 27.2825 14.8849C29.0495 15.329 34.3385 17.0868 36.7655 23.7753C37.496 23.5319 39.0695 22.5963 40.16 18.9825C41.624 14.1438 44.4005 9.49031 48.002 7.9269C44.4095 4.3009 39.6785 3.44647 34.0115 6.16137Z"/><path fill="url(#paint2_linear_3001_1145)" d="M63.1715 9.66033C59.273 4.8568 53.3855 1.79736 46.799 1.79736C41.999 1.79736 37.5695 3.42202 34.0115 6.16143C41.879 2.39302 47.9435 5.50146 51.656 13.3598C57.5705 14.4424 61.5875 11.4381 63.1715 9.66033Z"/><path fill="url(#paint3_linear_3001_1145)" d="M38.4861 43.4719C41.8551 44.9312 45.5706 45.4947 49.2516 45.0598C48.7461 43.2759 47.5911 37.7205 52.0521 32.231C51.4806 31.7073 49.9011 30.784 46.2891 31.6261C41.4531 32.7516 36.1161 32.623 32.9901 30.2205C31.7076 35.2077 33.3486 39.8183 38.4861 43.4719Z"/><path fill="url(#paint4_linear_3001_1145)" d="M26.8729 15.9414H26.8714C24.7474 21.7892 25.0954 28.5252 28.3894 34.3486C30.7894 38.5932 34.3819 41.6955 38.4859 43.4717C31.3549 38.4002 30.9604 31.4836 35.7694 24.2714C33.7294 18.5017 29.1724 16.4513 26.8729 15.9414Z"/><path fill="url(#paint5_linear_3001_1145)" d="M67.8981 20.8612C67.4511 17.1526 66.0711 13.5878 63.8616 10.5498C62.6016 11.8896 58.4661 15.6871 51.5796 14.4882C51.4206 15.2553 51.4281 17.1143 53.9481 19.8858C57.3201 23.5991 59.8806 28.3812 59.4051 32.3471C64.2771 30.9843 67.3671 27.2282 67.8981 20.8612Z"/><path fill="url(#paint6_linear_3001_1145)" d="M50.351 44.8928C56.375 43.8485 61.913 40.1719 65.207 34.3486C67.607 30.104 68.444 25.377 67.898 20.8613C67.16 29.7012 61.4915 33.5095 52.97 32.8633C49.094 37.5504 49.634 42.6051 50.351 44.8928Z"/><path fill="#7a7c7f" d="M74.55 6.354H74.975V40.645H74.55V6.354ZM82.297 21.535H81.467V14.952H84.886V15.743H82.297V21.535ZM87.649 21.535H86.819V14.952H88.717C90.182 14.952 91.103 15.573 91.103 17.003 91.103 18.367 90.182 19.11 88.643 19.11H87.649V21.535ZM87.649 18.318H88.643C89.666 18.318 90.218 17.895 90.218 17.02 90.218 16.116 89.665 15.741 88.643 15.741H87.649V18.318ZM98.123 21.535H97.294V16.231L94.162 21.535H93.223V14.952H94.052V20.257L97.184 14.952H98.123V21.535ZM105.622 21.535H104.792V18.506H101.531V21.535H100.702V14.952H101.531V17.736H104.792V14.952H105.622V21.535ZM111.682 19.776H108.928L108.301 21.534H107.462L109.922 14.951H110.752L113.165 21.534H112.3L111.682 19.776ZM109.195 19.004H111.415L110.336 15.909H110.299L109.195 19.004ZM116.638 21.535H115.808V15.743H113.902V14.952H118.544V15.743H116.638V21.535ZM120.019 18.243C120.019 16.136 121.207 14.857 122.912 14.857 124.828 14.857 125.86 16.249 125.86 18.243 125.86 20.482 124.625 21.629 122.939 21.629 121.151 21.629 120.019 20.33 120.019 18.243ZM124.975 18.243C124.975 16.438 124.183 15.648 122.911 15.648 121.778 15.648 120.902 16.485 120.902 18.243 120.902 19.973 121.75 20.839 123.022 20.839 124.228 20.839 124.975 19.946 124.975 18.243ZM134.462 21.535H133.633L133.237 16.392 131.606 21.535H130.741L129.119 16.41 128.714 21.535H127.885L128.438 14.952H129.452L131.194 20.613 132.898 14.952H133.912L134.462 21.535ZM82.132 31.643H81.467V26.371H82.987C84.16 26.371 84.898 26.869 84.898 28.012 84.898 29.104 84.16 29.7 82.928 29.7H82.132V31.643ZM82.132 29.067H82.928C83.747 29.067 84.19 28.729 84.19 28.028 84.19 27.305 83.747 27.003 82.928 27.003H82.132V29.067ZM86.299 29.008C86.299 27.32 87.25 26.297 88.615 26.297 90.149 26.297 90.976 27.412 90.976 29.008 90.976 30.801 89.987 31.718 88.637 31.718 87.206 31.72 86.299 30.68 86.299 29.008ZM90.268 29.008C90.268 27.562 89.633 26.93 88.615 26.93 87.707 26.93 87.007 27.601 87.007 29.008 87.007 30.394 87.685 31.086 88.703 31.086 89.671 31.087 90.268 30.371 90.268 29.008ZM96.229 31.501C95.948 31.637 95.551 31.72 95.101 31.72 93.493 31.72 92.527 30.695 92.527 29.077 92.527 27.285 93.515 26.297 95.057 26.297 95.647 26.297 95.995 26.403 96.238 26.501L96.112 27.097C95.788 26.976 95.447 26.931 95.123 26.931 93.899 26.931 93.235 27.654 93.235 29.009 93.235 30.32 93.98 31.087 95.189 31.087 95.513 31.087 95.861 31.027 96.119 30.899L96.229 31.501ZM100.868 30.236H98.663L98.162 31.645H97.49L99.46 26.372H100.124L102.056 31.645H101.363L100.868 30.236ZM98.876 29.619H100.654L99.791 27.141H99.761L98.876 29.619ZM104.762 31.643H104.098V27.005H102.571V26.372H106.289V27.005H104.762V31.643ZM107.395 29.008C107.395 27.32 108.346 26.297 109.711 26.297 111.245 26.297 112.072 27.412 112.072 29.008 112.072 30.801 111.083 31.718 109.733 31.718 108.302 31.72 107.395 30.68 107.395 29.008ZM111.364 29.008C111.364 27.562 110.729 26.93 109.711 26.93 108.803 26.93 108.103 27.601 108.103 29.008 108.103 30.394 108.781 31.086 109.799 31.086 110.767 31.087 111.364 30.371 111.364 29.008ZM118.888 31.643H118.223L117.907 27.524 116.602 31.643H115.909L114.61 27.539 114.286 31.643H113.621L114.064 26.371H114.875L116.269 30.905 117.634 26.371H118.445L118.888 31.643Z"/></g><defs><linearGradient id="paint1_linear_3001_1145" x1="31.7164" x2="41.1409" y1="20.4329" y2="3.19196" gradientUnits="userSpaceOnUse"><stop stop-color="#cccdcf"/><stop offset="0.247" stop-color="#aeb1b3"/><stop offset="0.792" stop-color="#6a6b6e"/><stop offset="1" stop-color="#4c4c4e"/></linearGradient><linearGradient id="paint2_linear_3001_1145" x1="35.936" x2="43.2176" y1="1.27852" y2="19.6447" gradientUnits="userSpaceOnUse"><stop stop-color="#cccdcf"/><stop offset="0.247" stop-color="#aeb1b3"/><stop offset="0.792" stop-color="#6a6b6e"/><stop offset="1" stop-color="#4c4c4e"/></linearGradient><linearGradient id="paint3_linear_3001_1145" x1="51.7404" x2="32.4235" y1="38.3559" y2="36.6144" gradientUnits="userSpaceOnUse"><stop stop-color="#cccdcf"/><stop offset="0.247" stop-color="#aeb1b3"/><stop offset="0.792" stop-color="#6a6b6e"/><stop offset="1" stop-color="#4c4c4e"/></linearGradient><linearGradient id="paint4_linear_3001_1145" x1="33.3845" x2="19.4237" y1="44.2151" y2="21.8265" gradientUnits="userSpaceOnUse"><stop stop-color="#cccdcf"/><stop offset="0.247" stop-color="#aeb1b3"/><stop offset="0.792" stop-color="#6a6b6e"/><stop offset="1" stop-color="#4c4c4e"/></linearGradient><linearGradient id="paint5_linear_3001_1145" x1="56.9431" x2="69.5656" y1="11.7051" y2="25.9641" gradientUnits="userSpaceOnUse"><stop stop-color="#cccdcf"/><stop offset="0.247" stop-color="#aeb1b3"/><stop offset="0.792" stop-color="#6a6b6e"/><stop offset="1" stop-color="#4c4c4e"/></linearGradient><linearGradient id="paint6_linear_3001_1145" x1="71.0821" x2="45.8806" y1="24.9949" y2="36.5403" gradientUnits="userSpaceOnUse"><stop stop-color="#cccdcf"/><stop offset="0.247" stop-color="#aeb1b3"/><stop offset="0.792" stop-color="#6a6b6e"/><stop offset="1" stop-color="#4c4c4e"/></linearGradient><radialGradient id="paint0_radial_3001_1145" cx="0" cy="0" r="1" gradientTransform="matrix(6.286 0 0 6.41696 45.358 20.953)" gradientUnits="userSpaceOnUse"><stop offset="0.029" stop-color="#dcddde"/><stop offset="0.134" stop-color="#d1d2d4"/><stop offset="0.329" stop-color="#b4b6b9"/><stop offset="0.46" stop-color="#9fa1a4"/><stop offset="0.557" stop-color="#8d8f91"/><stop offset="0.755" stop-color="#6c6d70"/><stop offset="0.909" stop-color="#565659"/><stop offset="1" stop-color="#4d4d4f"/></radialGradient><clipPath id="clip0_3001_1145"><path fill="#fff" d="M0 0H160V48H0z"/></clipPath></defs></svg>