<svg xmlns="http://www.w3.org/2000/svg" width="160" height="48" fill="none" viewBox="0 0 160 48"><g fill="#7a7c7f" clip-path="url(#clip0_2069_918)"><path d="M129.556 11.626C129.087 12.31 129.006 13.287 129.006 13.287L134.945 16.933C135.382 17.226 135.382 17.731 134.945 18.024 134.46 18.35 129.006 21.671 129.006 21.671 129.006 21.671 129.087 22.647 129.556 23.331 129.977 23.999 130.77 24.389 130.77 24.389 130.77 24.389 139.509 18.838 140.076 18.333 140.561 17.91 140.561 17.031 140.076 16.624 139.493 16.119 130.77 10.568 130.77 10.568 130.77 10.568 129.977 10.959 129.556 11.626ZM113.453 4.467 109.099 24.751C110.588 25.386 113.242 25.826 115.411 25.826 120.299 25.826 122.888 23.986 124.167 17.93 125.461 11.956 123.778 10.214 119.684 10.214 118.017 10.214 116.528 10.702 115.638 11.191L117.062 4.467H113.453ZM113.242 22.391 114.861 14.772C115.055 13.893 116.512 13.372 118.098 13.372 120.639 13.372 121.254 14.333 120.461 17.979 119.57 22.196 118.567 22.863 116.01 22.863 115.087 22.863 114.003 22.717 113.242 22.391ZM31.901 6.274C31.528 7.984 31.965 8.26 33.568 8.26 35.137 8.26 35.672 7.984 36.06 6.258 36.384 4.728 35.947 4.5 34.377 4.5 32.775 4.5 32.224 4.728 31.901 6.258V6.274ZM22.174 8.13 21.64 10.654H19.164L18.5 13.779H20.976L19.552 20.454C18.613 24.833 20.038 25.826 23.371 25.826 24.585 25.826 25.977 25.598 27.061 25.305L27.709 22.261C26.916 22.489 25.767 22.717 24.909 22.717 23.161 22.717 22.837 21.968 23.21 20.128L24.585 13.779H29.505L30.169 10.654H25.249L26.107 6.665 22.174 8.146V8.13ZM95.699 17.979C94.42 24.035 96.961 25.842 101.234 25.842 102.755 25.842 105.005 25.517 106.574 25.028L106.607 22.179C105.377 22.521 103.37 22.782 102.318 22.782 99.729 22.782 98.644 22.147 99.292 18.989H108.873C110.653 11.826 108.954 10.23 104.276 10.23 99.955 10.23 96.961 12.054 95.699 17.979ZM103.856 13.079C105.927 13.079 106.574 13.616 106.121 16.237H99.907C100.651 13.795 101.59 13.079 103.856 13.079ZM58.961 17.947C57.666 24.019 60.207 25.826 64.496 25.826 66.001 25.826 68.25 25.5 69.82 25.012L69.853 22.163C68.623 22.505 66.616 22.765 65.564 22.765 62.974 22.765 61.89 22.13 62.537 18.972H72.118C73.899 11.809 72.215 10.214 67.522 10.214 63.201 10.214 60.207 12.037 58.944 17.963L58.961 17.947ZM67.117 13.063C69.173 13.063 69.82 13.6 69.383 16.221H63.152C63.913 13.779 64.835 13.063 67.117 13.063ZM47.632 11.191C46.903 10.54 45.706 10.214 44.055 10.214 41.692 10.214 38.876 10.784 36.934 11.484L33.972 25.419H37.581L40.057 13.812C40.887 13.591 41.74 13.471 42.598 13.454 44.977 13.454 45.382 14.268 44.702 17.556L43.035 25.419H46.644L48.392 17.165C48.684 15.83 48.765 14.723 48.684 13.861 49.65 13.603 50.645 13.466 51.645 13.454 54.041 13.454 54.445 14.268 53.749 17.556L52.098 25.419H55.708L57.455 17.165C58.588 11.858 57.277 10.214 53.118 10.214 51.419 10.214 49.347 10.621 47.632 11.191ZM93.724 10.654C91.964 14.437 90.02 18.132 87.898 21.724 87.898 18.565 87.639 13.519 87.283 10.654H83.755C82.016 14.405 80.154 18.097 78.171 21.724 78.064 18.016 77.729 14.319 77.168 10.654H73.365C74.125 15.163 74.643 20.275 74.983 25.419H79.45C81.228 22.186 82.88 18.884 84.402 15.521 84.596 17.833 84.726 22.424 84.693 25.419H89.177C92.09 20.747 95.035 15.423 97.398 10.654H93.724ZM31.237 10.654 28.081 25.419H31.69L34.846 10.654H31.237ZM23.161 36.684H20.361V37.905H21.365C22.109 37.905 22.692 38.084 23.129 38.442 23.566 38.801 23.776 39.289 23.776 39.908 23.776 40.526 23.566 41.015 23.129 41.373 22.646 41.77 22.037 41.978 21.413 41.959H19.05V35.61H23.161V36.684ZM20.361 38.963V40.917H21.397C21.721 40.917 21.98 40.819 22.174 40.624 22.275 40.532 22.355 40.418 22.408 40.292 22.461 40.165 22.486 40.029 22.481 39.891 22.485 39.765 22.461 39.64 22.411 39.524 22.36 39.409 22.285 39.306 22.19 39.224 21.976 39.048 21.706 38.955 21.429 38.963H20.361ZM30.023 38.931C30.023 39.549 29.91 40.103 29.7 40.559 29.497 41.01 29.166 41.39 28.748 41.651 28.33 41.912 27.844 42.042 27.353 42.024 26.835 42.024 26.382 41.91 25.961 41.666 25.543 41.405 25.21 41.026 25.006 40.575 24.78 40.119 24.682 39.566 24.666 38.963V38.654C24.666 38.052 24.78 37.498 24.99 37.026 25.195 36.574 25.529 36.193 25.95 35.932 26.371 35.671 26.859 35.542 27.353 35.561 27.845 35.541 28.332 35.67 28.75 35.931 29.168 36.192 29.499 36.574 29.7 37.026 29.91 37.498 30.023 38.052 30.023 38.654V38.947 38.931ZM28.712 38.638C28.712 37.987 28.599 37.482 28.356 37.124 28.246 36.96 28.096 36.828 27.92 36.74 27.744 36.652 27.549 36.61 27.353 36.619 26.916 36.619 26.576 36.782 26.333 37.124 26.107 37.466 25.977 37.97 25.977 38.622V38.931C25.977 39.582 26.09 40.07 26.333 40.429 26.576 40.787 26.916 40.966 27.353 40.966 27.549 40.977 27.745 40.936 27.921 40.847 28.097 40.759 28.247 40.626 28.356 40.461 28.583 40.119 28.712 39.615 28.712 38.947V38.654 38.638ZM36.189 35.626V41.959H34.895V36.684H33.212L33.114 38.915C33.095 39.522 32.997 40.124 32.823 40.705 32.677 41.129 32.467 41.438 32.176 41.65 31.901 41.845 31.512 41.943 31.027 41.959H30.687V40.901L30.897 40.884C31.221 40.836 31.464 40.656 31.593 40.315 31.739 39.989 31.836 39.387 31.868 38.524L31.965 35.626H36.189ZM38.86 37.905H39.879C40.624 37.905 41.207 38.084 41.643 38.442 42.064 38.801 42.291 39.289 42.291 39.908 42.291 40.526 42.064 41.015 41.643 41.373 41.16 41.77 40.551 41.978 39.928 41.959H37.565V35.61H38.86V37.905ZM38.86 38.963V40.917H39.896C40.219 40.917 40.494 40.819 40.689 40.624 40.787 40.53 40.864 40.416 40.914 40.29 40.964 40.163 40.987 40.027 40.98 39.891 40.986 39.767 40.964 39.642 40.917 39.527 40.869 39.411 40.797 39.308 40.705 39.224 40.486 39.044 40.21 38.951 39.928 38.963H38.86ZM44.654 35.626V40.901H46.385V35.626H47.68V40.901H49.428V35.626H50.723V41.959H43.343V35.61H44.638L44.654 35.626ZM55.886 39.208H53.377V40.901H56.306V41.959H52.098V35.61H56.306V36.684H53.393V38.182H55.869V39.208H55.886ZM57.553 43.538 56.905 43.196 57.067 42.919C57.245 42.561 57.342 42.203 57.358 41.861V40.884H58.41V41.747C58.396 42.089 58.313 42.424 58.165 42.732 58.018 43.04 57.809 43.314 57.553 43.538ZM67.182 35.626V41.959H65.887V39.549C65.499 39.631 65.078 39.68 64.657 39.68 63.848 39.68 63.249 39.517 62.829 39.159 62.424 38.801 62.214 38.296 62.197 37.628V35.626H63.492V37.612C63.492 37.97 63.589 38.231 63.751 38.394 63.929 38.556 64.237 38.622 64.657 38.622 65.078 38.622 65.499 38.589 65.887 38.508V35.626H67.182ZM72.361 39.208H69.869V40.901H72.782V41.959H68.574V35.61H72.782V36.684H69.869V38.182H72.361V39.208ZM75.485 35.626 77.103 40.217 78.722 35.626H80.405V41.959H79.11V40.217L79.239 37.238 77.54 41.959H76.65L74.967 37.238 75.096 40.217V41.959H73.802V35.61H75.485V35.626ZM86.49 37.808 87.671 35.626H89.16L87.332 38.768 89.209 41.959H87.704L86.474 39.729 85.26 41.959H83.755L85.632 38.768 83.803 35.626H85.292L86.474 37.808H86.49ZM95.165 38.931C95.165 39.549 95.051 40.103 94.841 40.559 94.639 41.01 94.308 41.39 93.89 41.651 93.472 41.912 92.986 42.042 92.494 42.024 91.976 42.024 91.523 41.91 91.102 41.666 90.685 41.404 90.353 41.025 90.148 40.575 89.921 40.119 89.824 39.566 89.824 38.963V38.654C89.824 38.052 89.921 37.498 90.148 37.026 90.352 36.576 90.683 36.197 91.101 35.937 91.518 35.676 92.003 35.545 92.494 35.561 92.986 35.541 93.473 35.67 93.891 35.931 94.31 36.192 94.641 36.574 94.841 37.026 95.051 37.498 95.165 38.052 95.165 38.654V38.947 38.931ZM93.87 38.638C93.87 37.987 93.74 37.482 93.498 37.124 93.387 36.96 93.237 36.828 93.061 36.74 92.886 36.652 92.69 36.61 92.494 36.619 92.057 36.619 91.717 36.782 91.475 37.124 91.248 37.466 91.119 37.97 91.119 38.622V38.931C91.119 39.582 91.248 40.07 91.475 40.429 91.717 40.787 92.057 40.966 92.494 40.966 92.691 40.977 92.887 40.936 93.062 40.847 93.238 40.759 93.388 40.626 93.498 40.461 93.74 40.119 93.854 39.615 93.854 38.947V38.654L93.87 38.638ZM101.298 39.842C101.25 40.526 100.991 41.063 100.538 41.454 100.101 41.845 99.502 42.04 98.758 42.04 97.948 42.04 97.317 41.763 96.864 41.226 96.395 40.673 96.168 39.924 96.168 38.963V38.589C96.168 37.97 96.265 37.449 96.492 36.961 96.684 36.519 97.005 36.145 97.412 35.889 97.819 35.634 98.294 35.508 98.774 35.528 99.502 35.528 100.085 35.724 100.538 36.115 100.975 36.505 101.234 37.059 101.298 37.775H100.004C99.971 37.368 99.858 37.059 99.68 36.88 99.47 36.701 99.178 36.603 98.774 36.603 98.353 36.603 98.029 36.766 97.803 37.075 97.592 37.384 97.479 37.873 97.479 38.524V39.012C97.479 39.68 97.576 40.184 97.787 40.494 97.997 40.819 98.321 40.982 98.758 40.982 99.162 40.982 99.47 40.884 99.664 40.705 99.858 40.51 99.971 40.217 99.988 39.842H101.282 101.298ZM106.995 36.684H105.086V41.959H103.791V36.684H101.897V35.626H107.011V36.684H106.995ZM111.753 35.626H113.048V41.959H111.753V37.742L109.245 41.959H107.95V35.61H109.245V39.842L111.753 35.61V35.626ZM119.554 41.959H118.259V39.24H115.735V41.959H114.44V35.61H115.735V38.182H118.259V35.626H119.554V41.959ZM125.057 36.684H122.241V41.959H120.946V35.61H125.057V36.684Z"/></g><defs><clipPath id="clip0_2069_918"><path fill="#fff" d="M0 0H123V39.0706H0z" transform="translate(18.5 4.467)"/></clipPath></defs></svg>