<svg xmlns="http://www.w3.org/2000/svg" width="160" height="48" fill="none" viewBox="0 0 160 48"><g clip-path="url(#clip0_3001_1173)"><path fill="#777" fill-rule="evenodd" d="M23.8807 7.83325H9.53926C6.22222 7.83325 5.01926 8.1777 3.80667 8.82436C2.60908 9.45628 1.62914 10.4336 0.994074 11.6295C0.345185 12.8399 0 14.0392 0 17.3481V31.6525C0 34.9607 0.345185 36.1599 0.994074 37.3695C1.62902 38.5657 2.60898 39.5434 3.80667 40.1755C5.01926 40.8221 6.22222 41.1666 9.53926 41.1666H23.8815C27.1985 41.1666 28.4007 40.8221 29.6133 40.1755C30.8113 39.5435 31.7915 38.5658 32.4267 37.3695C33.0748 36.1599 33.42 34.9607 33.42 31.6525V17.3473C33.42 14.0392 33.0748 12.8399 32.4267 11.6303C31.7917 10.4341 30.8118 9.45647 29.6141 8.82436C28.4007 8.1777 27.1985 7.83325 23.8807 7.83325ZM23.8807 9.917H9.53925L9.53999 9.91626C6.39258 9.91626 5.5785 10.2422 4.79258 10.6614C3.95821 11.0993 3.27594 11.7795 2.83554 12.6126C2.4148 13.397 2.08888 14.2081 2.08888 17.3474V17.8422C2.08976 17.9519 2.13291 18.057 2.20936 18.1356C2.2858 18.2143 2.38964 18.2604 2.49925 18.2644C2.58446 18.2681 2.66964 18.2723 2.7548 18.277C4.63999 18.3792 6.10962 20.1585 6.20073 22.3563C6.20962 22.5651 6.21776 22.7437 6.22517 22.9051L6.22575 22.918C6.24987 23.4597 6.26591 23.8199 6.26591 24.5585C6.26591 25.2925 6.24821 25.7101 6.22163 26.3368L6.22163 26.3369L6.22163 26.3369L6.22147 26.3407V26.3459C6.21702 26.4459 6.21258 26.5511 6.20813 26.6629C6.11628 28.8518 4.64888 30.6185 2.7711 30.7222C2.68309 30.7279 2.59577 30.7315 2.51042 30.735L2.51035 30.7351L2.51026 30.7351L2.49925 30.7355C2.27184 30.7451 2.08813 30.9303 2.08813 31.1577V31.6526C2.08813 34.7918 2.41554 35.6029 2.83628 36.3874C3.27633 37.2202 3.95805 37.9003 4.79184 38.3385C5.57776 38.757 6.3911 39.0829 9.53925 39.0829H23.8807C27.0289 39.0829 27.8422 38.7577 28.6289 38.3385C29.4627 37.9004 30.1444 37.2202 30.5844 36.3874C31.0052 35.6029 31.3318 34.7918 31.3318 31.6526V31.1577C31.331 31.0481 31.2878 30.943 31.2114 30.8643C31.1349 30.7857 31.0311 30.7395 30.9215 30.7355L30.838 30.7318L30.8379 30.7318C30.7865 30.7295 30.7347 30.7273 30.6829 30.7244C28.7896 30.6222 27.3141 28.8296 27.2178 26.6222C27.2118 26.4785 27.2059 26.3466 27.2 26.2222L27.1994 26.2092C27.1723 25.6097 27.1541 25.2057 27.1541 24.5585C27.1541 23.9333 27.1711 23.5903 27.197 23.0689V23.0659L27.2047 22.9071C27.2119 22.759 27.2198 22.5954 27.2274 22.4074C27.3244 20.1881 28.8037 18.374 30.7089 18.274C30.7744 18.2706 30.84 18.2678 30.9043 18.2651L30.9207 18.2644C31.0305 18.2606 31.1345 18.2145 31.2111 18.1359C31.2877 18.0572 31.3309 17.952 31.3318 17.8422V17.3481C31.3318 14.2081 31.0052 13.397 30.5844 12.6126C30.1444 11.7797 29.4627 11.0996 28.6289 10.6614C27.8422 10.2429 27.0289 9.917 23.8807 9.917ZM8.71036 22.0014C8.89184 18.397 11.7007 15.3614 15.42 15.1985L15.4207 15.1977C15.8644 15.1785 16.3015 15.1666 16.7111 15.1666C17.1597 15.168 17.6082 15.1794 18.0563 15.2007C21.7407 15.3674 24.5481 18.357 24.7229 21.9489C24.7904 23.334 24.8422 24.637 24.8422 26.0555C24.8422 27.3296 24.7955 28.4785 24.7333 29.7392C24.5563 33.3244 21.7474 36.297 18.0763 36.4651C17.6067 36.4866 17.1422 36.5 16.7104 36.5C16.2904 36.5 15.8415 36.4874 15.3867 36.4674C11.6889 36.3014 8.87925 33.294 8.69628 29.6985C8.62962 28.3933 8.57776 27.2281 8.57776 26.0555C8.57776 24.8014 8.63702 23.4622 8.71036 22.0014ZM10.157 22.0743C10.3037 19.161 12.5622 16.7698 15.4829 16.641C15.9118 16.6224 16.3281 16.6113 16.7096 16.6113C17.1369 16.6127 17.5642 16.6235 17.9911 16.6439C20.8874 16.7743 23.1355 19.1298 23.2762 22.0187C23.3437 23.3965 23.394 24.6728 23.394 26.0558C23.394 27.2935 23.3488 28.4143 23.2866 29.6684C23.1437 32.5484 20.8977 34.8906 18.0103 35.0224C17.5548 35.0432 17.114 35.0558 16.7103 35.0558C16.3185 35.0558 15.8918 35.0439 15.4518 35.0247C12.5444 34.8943 10.2903 32.5239 10.1422 29.6261C10.0763 28.3224 10.0259 27.1884 10.0259 26.0558C10.0259 24.8417 10.0829 23.535 10.157 22.0743ZM15.7592 18.275C13.5822 18.375 11.8925 20.1884 11.7814 22.4084C11.7708 22.6142 11.7611 22.7909 11.7524 22.9505L11.7459 23.0698C11.7162 23.5906 11.6977 23.9335 11.6977 24.5587C11.6977 25.2098 11.7177 25.6158 11.7496 26.2232C11.7532 26.2986 11.7574 26.3771 11.7617 26.4596L11.7618 26.4599L11.7703 26.6232C11.88 28.8298 13.5666 30.6232 15.7303 30.7247C16.0733 30.7402 16.4059 30.7506 16.7103 30.7506C17.0259 30.7506 17.3718 30.7402 17.7288 30.7224C19.8748 30.6187 21.5518 28.8521 21.657 26.6632C21.6614 26.5491 21.6666 26.4424 21.6718 26.3417C21.7029 25.7121 21.7229 25.2943 21.7229 24.5587C21.7229 23.8143 21.7044 23.4543 21.6755 22.9061L21.668 22.7595L21.668 22.7582C21.6617 22.6361 21.6549 22.5039 21.6481 22.3565C21.5437 20.1587 19.8651 18.3795 17.7103 18.2773C17.3607 18.2602 17.0207 18.2498 16.7103 18.2498C16.3931 18.2511 16.076 18.2595 15.7592 18.275ZM13.9333 25.7505C13.7838 25.7503 13.6402 25.8095 13.5343 25.915C13.4283 26.0206 13.3686 26.1639 13.3682 26.3135V26.6186C13.4274 27.792 14.3148 28.9668 15.8252 29.0823L15.8474 29.0846H16.1452C16.221 29.0873 16.2966 29.0748 16.3674 29.0476C16.4382 29.0205 16.5029 28.9794 16.5575 28.9268C16.6121 28.8741 16.6555 28.811 16.6851 28.7412C16.7148 28.6714 16.7301 28.5963 16.7301 28.5205C16.7301 28.4446 16.7148 28.3696 16.6851 28.2998C16.6555 28.23 16.6121 28.1669 16.5575 28.1142C16.5029 28.0616 16.4382 28.0204 16.3674 27.9933C16.2966 27.9662 16.221 27.9537 16.1452 27.9564H15.8919C15.0237 27.8809 14.5371 27.2305 14.4985 26.5749V26.3142C14.4981 26.1646 14.4384 26.0213 14.3324 25.9158C14.2265 25.8102 14.0829 25.7503 13.9333 25.7505Z" clip-rule="evenodd"/><path fill="#7a7c7f" d="M130.016 16.0954C129.387 16.7147 128.445 16.9828 127.206 16.9828C125.97 16.9828 125.003 16.7147 124.393 16.0954C123.764 15.4991 123.477 14.5821 123.477 13.4006V13.2495H125.488V13.4006C125.488 14.0347 125.628 14.4428 125.864 14.6651L125.871 14.6725C126.11 14.9184 126.551 15.0391 127.202 15.0391C127.853 15.0391 128.272 14.9184 128.511 14.6725L128.519 14.6651C128.761 14.4428 128.919 14.031 128.919 13.4006V13.2495H130.931V13.4006C130.931 14.5858 130.619 15.5028 130.016 16.0954Z"/><path fill="#7a7c7f" fill-rule="evenodd" d="M116.876 28.0185C117.071 27.7511 117.204 27.4148 117.295 26.9696L117.325 26.8452H119.664L119.638 27.0185C119.52 27.7815 119.303 28.4341 118.958 28.9622C118.619 29.5103 118.204 29.94 117.689 30.2644C117.178 30.5889 116.597 30.8118 115.95 30.9592C115.276 31.1066 114.559 31.1555 113.776 31.1555C112.801 31.1555 111.941 31.057 111.172 30.8348C110.43 30.6509 109.746 30.2822 109.184 29.7629C108.647 29.257 108.235 28.5815 107.944 27.7429C107.653 26.9244 107.51 25.8941 107.51 24.6748C107.51 23.4296 107.65 22.3726 107.941 21.5311C108.227 20.6926 108.639 19.9948 109.176 19.4659L109.18 19.4622C109.712 18.9644 110.371 18.5903 111.144 18.3681H111.147C111.99 18.1546 112.856 18.0481 113.725 18.0511C115.538 18.0511 116.987 18.5192 118.057 19.4659C119.108 20.4252 119.634 21.8703 119.634 23.7844V25.5548H109.867C109.882 26.2489 109.992 26.8259 110.161 27.2563C110.322 27.6837 110.591 28.0622 110.941 28.3548C111.272 28.6303 111.672 28.8111 112.147 28.9059C112.632 29 113.166 29.0496 113.769 29.0496C114.236 29.0496 114.652 29.0266 115.064 28.9548H115.07C115.45 28.9059 115.788 28.7926 116.104 28.6303L116.107 28.6266H116.111C116.412 28.4941 116.652 28.2933 116.876 28.0185ZM111.033 20.8407C110.702 21.0889 110.433 21.4333 110.231 21.8926C110.044 22.3192 109.93 22.8555 109.893 23.5422H117.24C117.23 22.9007 117.137 22.3874 116.972 21.9615C116.792 21.497 116.567 21.157 116.262 20.8852C115.942 20.6258 115.569 20.4379 115.17 20.3341C114.695 20.2273 114.209 20.1717 113.721 20.1681C113.166 20.1681 112.681 20.217 112.221 20.3118C111.79 20.3965 111.384 20.5778 111.033 20.8407Z" clip-rule="evenodd"/><path fill="#7a7c7f" d="M136.212 26.717C136.255 26.2148 136.304 25.5689 136.304 24.7541V18.4207H146.151V30.8007H143.787V20.5341H138.598V25.0452C138.598 26.9882 138.315 28.4452 137.778 29.3741C137.227 30.3474 136.325 30.8007 135.108 30.8007H134.586V28.5659H134.733C135.027 28.5659 135.259 28.517 135.439 28.4148L135.447 28.4111L135.45 28.4074C135.619 28.3319 135.789 28.1474 135.921 27.8756C136.049 27.6074 136.141 27.2415 136.212 26.717ZM103.712 26.683C103.619 27.1733 103.461 27.5622 103.267 27.8563C103.068 28.1484 102.811 28.3965 102.512 28.5852C102.193 28.7682 101.843 28.8921 101.479 28.9511C101.067 29.023 100.652 29.0452 100.185 29.0452C99.5561 29.0452 99.0043 28.9963 98.5228 28.8793C98.0265 28.7622 97.6295 28.5585 97.3243 28.2452L97.3206 28.2415C96.9895 27.9244 96.7428 27.4904 96.5591 26.9282C96.3791 26.3696 96.2836 25.6148 96.2836 24.6822C96.2836 23.7274 96.3754 22.9689 96.5591 22.3615C96.7428 21.7726 96.9895 21.3156 97.3206 21.0022L97.3243 20.9985C97.6295 20.6852 98.0265 20.4778 98.5228 20.3644C99.0043 20.2474 99.5599 20.1756 100.185 20.1756C100.619 20.1756 101.035 20.2215 101.409 20.2704C101.769 20.3422 102.104 20.4556 102.417 20.6363C102.704 20.8178 102.95 21.0474 103.175 21.3459C103.373 21.64 103.531 22.0067 103.619 22.4704L103.641 22.5911H106.009L105.977 22.4133C105.833 21.6059 105.616 20.9082 105.274 20.3533C104.954 19.8264 104.533 19.3682 104.035 19.0052L104.032 19.0022C103.508 18.6596 102.926 18.4154 102.314 18.2815C101.616 18.131 100.903 18.0575 100.189 18.0622C99.3122 18.0577 98.4385 18.1642 97.5887 18.3793H97.585C96.8124 18.6015 96.1324 18.9756 95.5954 19.4741L95.5917 19.4778C95.0547 20.0059 94.6428 20.7044 94.3561 21.5422C94.0658 22.3837 93.9258 23.4407 93.9258 24.6859C93.9258 25.9052 94.0695 26.9356 94.3561 27.7548C94.6428 28.5926 95.0584 29.2682 95.5954 29.7741C96.1577 30.2934 96.8421 30.6621 97.585 30.8459C98.3539 31.0682 99.2139 31.1667 100.189 31.1667C100.975 31.1667 101.692 31.0948 102.362 30.9474C102.985 30.8121 103.577 30.5587 104.105 30.2007C104.62 29.8496 105.032 29.4007 105.374 28.8267C105.715 28.2711 105.932 27.5733 106.054 26.7393L106.08 26.5659H103.741L103.712 26.683ZM157.632 26.683L157.654 26.5585V26.5659H160L159.974 26.7393C159.852 27.5733 159.636 28.2719 159.294 28.8267C158.952 29.4 158.54 29.8489 158.025 30.2007C157.514 30.5511 156.933 30.8007 156.282 30.9474C155.613 31.0956 154.895 31.1667 154.109 31.1667C153.135 31.1667 152.274 31.0682 151.505 30.8459C150.762 30.6621 150.078 30.2934 149.516 29.7741C148.979 29.2682 148.567 28.5926 148.277 27.7548C147.989 26.9356 147.847 25.9052 147.847 24.6859C147.847 23.4407 147.986 22.3837 148.277 21.5422C148.564 20.7044 148.975 20.0059 149.512 19.4778L149.516 19.4741C150.052 18.9756 150.733 18.6022 151.505 18.3793H151.509C152.359 18.1642 153.232 18.0577 154.109 18.0622C154.87 18.0622 155.565 18.1341 156.234 18.2815C156.846 18.4146 157.428 18.6589 157.952 19.0022L157.955 19.0059C158.453 19.3691 158.874 19.827 159.195 20.3533C159.536 20.9082 159.753 21.6059 159.897 22.4141L159.93 22.5919H157.562L157.54 22.4704C157.47 22.069 157.319 21.6862 157.095 21.3459C156.888 21.0645 156.631 20.8239 156.337 20.6363C156.024 20.459 155.683 20.3353 155.329 20.2704C154.924 20.2121 154.515 20.1805 154.105 20.1756C153.48 20.1756 152.925 20.2474 152.443 20.3644C151.947 20.4778 151.549 20.6852 151.244 20.9985L151.241 21.0022C150.909 21.3156 150.663 21.7726 150.479 22.3615C150.295 22.9689 150.204 23.7274 150.204 24.6822C150.204 25.6148 150.299 26.3696 150.479 26.9282C150.663 27.4911 150.909 27.9244 151.241 28.2415L151.244 28.2452C151.549 28.5585 151.947 28.7622 152.443 28.8793C152.925 28.9963 153.476 29.0452 154.105 29.0452C154.572 29.0452 154.988 29.023 155.4 28.9511C155.786 28.883 156.121 28.7659 156.433 28.5852C156.72 28.4037 156.962 28.1778 157.187 27.8563C157.381 27.5622 157.54 27.1733 157.632 26.683Z"/><path fill="#7a7c7f" fill-rule="evenodd" d="M90.4215 19.1001C89.4474 18.3979 88.094 18.0586 86.4059 18.0586C85.597 18.0586 84.8577 18.1304 84.2326 18.2808C83.5822 18.429 83.0229 18.6779 82.56 19.006L82.5563 19.0097C82.0889 19.3645 81.7215 19.8134 81.4303 20.3653C81.1363 20.9193 80.9452 21.6141 80.8496 22.4253L80.8311 22.5956H83.1259L83.1444 22.4667C83.214 21.9949 83.3244 21.6297 83.5007 21.3386L83.5081 21.3312C83.6629 21.0364 83.8577 20.8134 84.1185 20.6364C84.38 20.4586 84.6889 20.3423 85.0711 20.2734C85.516 20.2128 85.9643 20.1814 86.4133 20.1793C87.5792 20.1793 88.3622 20.3941 88.8444 20.7534C89.3111 21.1008 89.5614 21.6971 89.5614 22.5875V23.4408C89.2874 23.4371 89.037 23.4186 88.7992 23.4023L88.7081 23.3949H88.6933C88.3955 23.3949 88.094 23.3727 87.7889 23.346H87.774C87.6163 23.346 87.4615 23.3423 87.2963 23.3349H87.2815C87.1118 23.3275 86.9318 23.3238 86.7407 23.3238C86.5644 23.3238 86.3837 23.3201 86.1889 23.3127H86.1563C85.9503 23.3053 85.7296 23.3008 85.494 23.3008C84.4718 23.3008 83.6296 23.4216 82.9755 23.649H82.9718C82.3244 23.8934 81.8096 24.1919 81.4378 24.5771C81.0728 24.9274 80.8011 25.3633 80.6474 25.8453C80.5128 26.2749 80.4471 26.7232 80.4526 27.1734C80.4526 27.883 80.5481 28.5134 80.7948 29.0267C81.0155 29.529 81.3348 29.9586 81.7577 30.2645C82.1548 30.5934 82.6444 30.8201 83.1992 30.9667C83.7585 31.1179 84.3615 31.1667 85.0237 31.1667C86.0274 31.1667 86.9466 30.9934 87.7703 30.5964C88.5552 30.2236 89.1877 29.5918 89.5614 28.8075V30.8045H91.9259V22.5801C91.9222 20.9986 91.4148 19.8097 90.4215 19.1001ZM89.5577 26.4149C89.5133 26.9779 89.374 27.4297 89.1607 27.7623C88.9363 28.106 88.6496 28.3771 88.3 28.5549C87.914 28.7508 87.4995 28.8846 87.0718 28.9512C86.6081 29.023 86.1711 29.0453 85.7037 29.0453C84.674 29.0453 83.9311 28.9023 83.4718 28.6304C83.0414 28.3779 82.817 27.9097 82.817 27.143C82.817 26.8867 82.8392 26.6416 82.9237 26.426L82.9311 26.4112C82.9896 26.2038 83.1333 25.989 83.3726 25.8149L83.38 25.8075C83.5896 25.6371 83.9348 25.4979 84.4022 25.3771C84.8615 25.2823 85.5089 25.2112 86.2992 25.2112C86.5237 25.2112 86.7555 25.2149 87.0015 25.2223H87.0348C87.2926 25.2297 87.5644 25.2334 87.8474 25.2334C88.3733 25.2556 88.9548 25.2786 89.5614 25.3016V26.4149H89.5577ZM62.8496 24.5467C63.6985 24.6564 64.3903 24.8979 64.894 25.3171C65.4052 25.7882 65.6733 26.4867 65.6696 27.4379C65.6696 27.9208 65.5703 28.3475 65.4237 28.7475C65.2693 29.1631 65.0125 29.5331 64.677 29.823C64.312 30.1435 63.8888 30.3907 63.4303 30.5512H63.4266C62.9118 30.729 62.3303 30.8008 61.6615 30.8008H54.7852V18.4208H61.1466C61.9118 18.4208 62.5659 18.5193 63.0992 18.6927H63.1066C63.6363 18.889 64.0548 19.1149 64.4015 19.4208C64.7429 19.7267 64.997 20.0586 65.1474 20.4475C65.2948 20.8253 65.3681 21.206 65.3681 21.6141C65.3681 22.5082 65.1252 23.229 64.6659 23.7008L64.6622 23.7053C64.2133 24.1423 63.6103 24.4141 62.8496 24.5053V24.5467ZM60.9852 20.5341H57.1533V23.5386H61.4118C62.0511 23.5386 62.4666 23.3764 62.6837 23.0941C62.9007 22.7801 63.0296 22.4253 63.0296 21.9756C63.0296 21.7534 62.9889 21.5534 62.9407 21.3608C62.9044 21.2141 62.8126 21.0934 62.6763 20.9534C62.537 20.8327 62.3311 20.7423 62.0511 20.6475C61.7014 20.567 61.344 20.529 60.9852 20.5341ZM61.1948 28.6867C61.8637 28.6867 62.3785 28.5697 62.7726 28.3438C63.1355 28.1364 63.3311 27.7586 63.3311 27.1697C63.3311 26.6941 63.1985 26.3208 62.9415 26.0112C62.7022 25.7282 62.1985 25.5579 61.3822 25.5579H57.1526V28.6867H61.1948Z" clip-rule="evenodd"/><path fill="#7a7c7f" d="M69.8874 26.7503V18.4207H67.5193V30.8007H68.9097L76.183 22.5614V30.8007H78.5474V18.4207H77.1578L69.8874 26.7503Z"/><path fill="#7a7c7f" fill-rule="evenodd" d="M46.9007 18.0586C48.5888 18.0586 49.9422 18.3979 50.9162 19.1001C51.9059 19.8097 52.4125 20.9986 52.4125 22.5801V30.8008H50.0488V28.8038C49.6548 29.6082 49.0592 30.2082 48.2577 30.5934C47.434 30.9897 46.5148 31.163 45.5111 31.163C44.8488 31.163 44.2459 31.1141 43.6866 30.963C43.1311 30.8156 42.6422 30.589 42.2451 30.2608C41.8229 29.9549 41.5029 29.5245 41.2822 29.023C41.0355 28.5097 40.9399 27.8793 40.9399 27.1697C40.9399 26.7475 40.9881 26.2941 41.1348 25.8416C41.2883 25.3595 41.56 24.9236 41.9251 24.5734C42.3007 24.1919 42.8155 23.8934 43.4555 23.6482H43.4592C44.1133 23.4216 44.9555 23.3008 45.9777 23.3008C46.2133 23.3008 46.434 23.3045 46.6399 23.3127H46.6725C46.8681 23.3201 47.0481 23.3238 47.2244 23.3238C47.4155 23.3238 47.5955 23.3275 47.7651 23.3349H47.7799C47.9451 23.3423 48.0992 23.346 48.2577 23.346H48.2725C48.5814 23.3727 48.8829 23.3956 49.1807 23.3956H49.1955L49.2866 23.4023C49.5244 23.4193 49.7755 23.4371 50.0488 23.4408V22.5801C50.0488 21.6897 49.7985 21.0934 49.3318 20.746C48.8503 20.3875 48.0666 20.1719 46.9007 20.1719C46.3933 20.1719 45.9303 20.2171 45.5585 20.2667C45.1725 20.3341 44.8673 20.4519 44.6059 20.629C44.3451 20.8067 44.1503 21.029 43.9955 21.323L43.9918 21.3275V21.3349C43.8192 21.6253 43.7051 21.9912 43.6355 22.463L43.617 22.5912H41.3222L41.3407 22.4216C41.437 21.6104 41.6273 20.9156 41.9214 20.3608C42.2125 19.8097 42.5799 19.3608 43.0473 19.0053L43.0511 19.0023C43.514 18.6734 44.0733 18.4282 44.7273 18.2816C45.3525 18.1304 46.0918 18.0586 46.9007 18.0586ZM49.6511 27.7623C49.8644 27.4304 50.0007 26.9771 50.0488 26.4149H50.0525V25.3016C49.4451 25.2793 48.8607 25.2564 48.3385 25.2334C48.0555 25.2334 47.7829 25.2297 47.5259 25.2223H47.4925C47.2466 25.2149 47.0148 25.2112 46.7903 25.2112C45.9999 25.2112 45.3533 25.2823 44.8933 25.3771C44.4266 25.4979 44.0799 25.6371 43.8711 25.8067L43.8636 25.8141C43.6244 25.9882 43.4807 26.2038 43.4222 26.4112L43.4148 26.426C43.3303 26.6408 43.3081 26.8867 43.3081 27.143C43.3081 27.9097 43.5325 28.3779 43.9629 28.6304C44.4222 28.9023 45.1651 29.0453 46.1948 29.0453C46.6614 29.0453 47.0992 29.023 47.5629 28.9512C47.9906 28.8847 48.4051 28.7509 48.791 28.5549C49.1407 28.3771 49.4303 28.106 49.6511 27.7623Z" clip-rule="evenodd"/><path fill="#7a7c7f" d="M124.058 26.7503V18.4207H121.693V30.8007H123.08L130.353 22.5614V30.8007H132.718V18.4207H131.328L124.058 26.7503Z"/></g><defs><clipPath id="clip0_3001_1173"><path fill="#fff" d="M0 0H160V33.3333H0z" transform="translate(0 7.833)"/></clipPath></defs></svg>