<svg xmlns="http://www.w3.org/2000/svg" width="160" height="48" fill="none" viewBox="0 0 160 48"><g fill="#7a7c7f" clip-path="url(#clip0_2069_908)"><path fill-rule="evenodd" d="M28.2763 40.671C31.0204 35.3601 32.6738 27.2167 33.2015 20.578C29.5076 21.1976 27.7926 21.5517 25.9896 22.304C24.301 25.4906 22.8821 25.3283 22.2957 24.9153C17.1946 21.6402 23.2192 19.6928 25.374 19.6928C26.2886 16.2231 28.8627 10.8118 30.0353 8.53996C30.5781 7.43363 31.0714 6.55713 31.5199 5.88452H26.0149V14.9573H17L17 32.2178H26.0149V41.2906H27.9751C28.0688 41.0852 28.1691 40.8785 28.2763 40.671ZM32.1253 41.2906H43.1652V32.2178H52.1801V19.0515C46.4381 18.7722 40.7416 19.3964 36.5126 19.8598C36.3446 19.8782 36.1791 19.8963 36.0159 19.9141C36.0159 19.9141 36.1918 28.1903 32.322 40.671C32.2564 40.8827 32.1908 41.0893 32.1253 41.2906ZM52.1801 17.4063V14.9573H43.1652V5.88452H35.0409C35.8282 8.39396 36.0496 13.113 36.1918 17.3915C41.8646 16.8604 47.3175 16.9566 52.0228 17.3915C52.0752 17.3963 52.1276 17.4012 52.1801 17.4063ZM26.9132 19.2504C28.0712 18.8963 30.9501 18.1351 33.2016 17.9226C33.5387 11.0922 32.753 1.79517 26.9132 19.2504ZM24.4065 22.8794C24.084 22.9384 23.2368 23.1627 22.4276 23.5875C22.8527 24.0301 23.8436 24.5081 24.4065 22.8794Z" clip-rule="evenodd"/><path d="M67.841 30.139H64.559V20.687H61.236V30.139H57.963V18.007H67.841V30.139ZM80.987 30.139H77.301L73.723 23.99V30.139H70.449V18.007H73.723V23.882L77.169 18.007H80.748L77.029 23.799 80.987 30.139ZM95.299 20.845C95.299 22.444 94.353 23.407 92.463 23.733V23.799C93.551 23.893 94.373 24.187 94.928 24.679 95.483 25.171 95.761 25.835 95.761 26.67 95.761 27.401 95.557 28.042 95.151 28.596 94.749 29.143 94.167 29.567 93.403 29.865 92.638 30.158 91.734 30.305 90.69 30.305 88.771 30.305 87.24 30.087 86.097 29.65V26.828C86.564 27.066 87.158 27.26 87.878 27.409 88.604 27.553 89.261 27.625 89.849 27.625 90.778 27.625 91.437 27.528 91.828 27.334 92.218 27.141 92.413 26.817 92.413 26.363 92.413 25.55 91.49 25.144 89.643 25.144H88.224V22.488H89.494C90.132 22.488 90.629 22.458 90.987 22.397 91.349 22.33 91.613 22.225 91.778 22.082 91.943 21.938 92.026 21.722 92.026 21.434 92.026 20.826 91.446 20.521 90.286 20.521 89.192 20.521 88.23 20.804 87.4 21.368L86.031 19.111C86.751 18.646 87.482 18.317 88.224 18.123 88.967 17.93 89.863 17.833 90.913 17.833 92.237 17.833 93.298 18.109 94.095 18.663 94.898 19.216 95.299 19.943 95.299 20.845ZM109.991 33.914H106.817V30.138H99.792V33.914H96.617V27.45H97.615C98.335 26.222 98.929 24.803 99.396 23.193 99.863 21.577 100.165 19.849 100.303 18.006H108.342V27.45H109.991V33.914ZM105.06 27.45V20.687H102.917C102.691 23.055 102.073 25.309 101.061 27.45H105.06ZM120.356 21.865C120.356 23.221 119.957 24.269 119.16 25.01 118.369 25.746 117.242 26.114 115.779 26.114H114.864V30.139H111.607V18.007H115.779C117.302 18.007 118.446 18.341 119.209 19.011 119.974 19.68 120.356 20.632 120.356 21.865ZM114.864 23.442H115.458C115.947 23.442 116.335 23.304 116.621 23.027 116.912 22.75 117.058 22.369 117.058 21.882 117.058 21.063 116.607 20.654 115.705 20.654H114.864V23.442ZM129.673 30.139 129.08 27.865H125.163L124.553 30.139H120.975L124.908 17.957H129.253L133.235 30.139H129.673ZM128.404 25.177 127.884 23.185C127.763 22.743 127.615 22.17 127.439 21.468 127.268 20.765 127.156 20.261 127.101 19.957 127.051 20.239 126.952 20.704 126.804 21.351 126.661 21.999 126.34 23.274 125.839 25.177H128.404ZM134.545 18.006H138.75C140.388 18.006 141.603 18.253 142.395 18.745 143.192 19.232 143.59 19.992 143.59 21.027 143.59 21.707 143.417 22.288 143.071 22.77 142.725 23.251 142.268 23.561 141.702 23.699V23.782C142.45 23.981 142.991 24.313 143.326 24.778 143.662 25.243 143.829 25.846 143.829 26.587 143.829 27.688 143.417 28.556 142.593 29.192 141.774 29.823 140.655 30.138 139.237 30.138H134.545V18.006ZM137.802 22.662H138.783C139.25 22.662 139.611 22.565 139.863 22.371 140.122 22.178 140.251 21.89 140.251 21.508 140.251 20.828 139.74 20.488 138.717 20.488H137.802V22.662ZM137.802 25.06V27.607H138.948C139.965 27.607 140.474 27.176 140.474 26.313 140.474 25.909 140.336 25.599 140.061 25.384 139.792 25.168 139.399 25.06 138.882 25.06H137.802Z"/></g><defs><clipPath id="clip0_2069_908"><path fill="#fff" d="M0 0H127V35.4061H0z" transform="translate(17 5.885)"/></clipPath></defs></svg>