<svg xmlns="http://www.w3.org/2000/svg" width="230" height="60" fill="none" viewBox="0 0 230 60"><g clip-path="url(#clip0_10663_12901)"><mask id="mask0_10663_12901" width="230" height="42" x="0" y="15" maskUnits="userSpaceOnUse" style="mask-type:luminance"><path fill="#fff" d="M0 15H229.881V57H0V15Z"/></mask><g fill="#7a7c7f" mask="url(#mask0_10663_12901)"><path d="M53.0641 57.2612H49.4928V51.9302H39.6016V57.2597H36.0303V47.8517H37.2091C37.5906 46.8617 37.8999 45.6877 38.1372 44.3297C38.3753 42.9387 38.566 41.4712 38.7093 39.9272C38.8519 38.3832 38.947 36.8072 38.9948 35.1992C39.0412 33.6704 39.0651 32.1406 39.0665 30.6107V28.6202H51.1721V47.8532H53.0641V57.2612ZM12.1773 24.0782H10.2483C8.463 24.0782 7.11806 24.6032 6.21347 25.6532C5.30888 26.7032 4.85658 28.0937 4.85658 29.8247C4.85658 30.8147 4.9398 31.6797 5.10623 32.4197C5.27266 33.1307 5.51075 33.7952 5.8205 34.4132C6.15491 35.0312 6.55943 35.6182 7.03407 36.1742C7.53491 36.6982 8.11858 37.2542 8.78508 37.8422L10.9626 39.7427L4.67744 51.9317H0L5.64251 41.0402C4.83347 40.2992 4.10725 39.5422 3.46387 38.7692C2.86693 38.0342 2.33929 37.21 1.89201 36.3137C1.46371 35.4494 1.12741 34.5139 0.892261 33.5327C0.670263 32.4281 0.562217 31.2902 0.570955 30.1487C0.570955 28.6037 0.773601 27.1982 1.17889 25.9322C1.59176 24.6626 2.22736 23.5357 3.03508 22.6412C3.84412 21.7142 4.84425 21.0037 6.03548 20.5097C7.24905 19.9847 8.64137 19.7222 10.2125 19.7222H16.4976V51.9302H12.1773V24.0782ZM58.4928 42.1052C58.5629 44.2052 58.9436 45.7652 59.6347 46.7852C60.3259 47.8052 61.4924 48.3152 63.1344 48.3152C64.1338 48.3152 65.122 48.0987 66.099 47.6657C67.0984 47.2017 67.9193 46.6917 68.562 46.1357V50.3537C67.9432 50.9097 67.1577 51.3887 66.2053 51.7907C65.253 52.1927 64.1103 52.3937 62.7773 52.3937C60.1113 52.3937 58.0521 51.4047 56.5996 49.4267C55.1711 47.4497 54.4568 44.4222 54.4568 40.3442C54.4568 38.5832 54.5998 36.9607 54.8856 35.4767C55.1954 33.9947 55.6596 32.7127 56.2783 31.6307C56.8745 30.541 57.6727 29.664 58.5991 29.0807C59.5515 28.4637 60.6587 28.1552 61.9209 28.1552C62.9441 28.1552 63.8726 28.3557 64.7063 28.7567C65.5631 29.1587 66.2889 29.8077 66.8838 30.7037C67.4794 31.5997 67.9317 32.7582 68.2407 34.1792C68.5743 35.5692 68.7411 37.2842 68.7411 39.3242V42.1052H58.4928ZM33.8874 28.6202V51.9302H29.9948V42.0602H23.9605V51.9302H20.0678V28.6202H23.9605V37.9802H29.9948V28.6202H33.8874ZM75.8457 40.2062V51.9317H71.9542V28.6202H75.8457V39.8822L82.1308 28.6202H86.2015L80.0955 39.5567L86.9874 51.9317H82.4163L75.8457 40.2062ZM95.3078 52.3952C92.4993 52.3952 90.4162 51.3602 89.0585 49.2902C87.7255 47.2202 87.059 44.2232 87.059 40.2992C87.059 38.5382 87.2255 36.9157 87.5583 35.4317C87.9159 33.9177 88.4279 32.6357 89.0944 31.5857C89.7802 30.5101 90.6479 29.6544 91.6301 29.0852C92.6295 28.4672 93.7957 28.1582 95.1287 28.1582C96.1527 28.1582 97.0338 28.2662 97.772 28.4822C98.5093 28.6682 99.0926 28.9307 99.5218 29.2697V33.7187C99.1173 33.3797 98.5579 33.0552 97.8436 32.7452C97.1178 32.4339 96.3578 32.2778 95.5933 32.2832C94.1417 32.2832 93.0229 32.9472 92.2369 34.2752C91.4741 35.5722 91.0931 37.5342 91.0939 40.1612C91.0939 42.6632 91.4391 44.6407 92.1294 46.0937C92.8198 47.5457 93.9625 48.2717 95.5575 48.2717C96.4151 48.2717 97.1532 48.1327 97.772 47.8547C98.3894 47.5619 98.977 47.1725 99.5218 46.6952V50.9597C98.979 51.447 98.3746 51.8074 97.7361 52.0247C97.0696 52.2727 96.2602 52.3952 95.3078 52.3952ZM47.2794 32.6987H42.4945V33.6707C42.4945 34.6907 42.4706 35.8342 42.4229 37.1012C42.3759 38.3682 42.2926 39.6502 42.1732 40.9472C42.0546 42.2452 41.8877 43.4967 41.6728 44.7017C41.4832 45.9067 41.2336 46.9567 40.9238 47.8517H47.2794V32.6987ZM61.8492 32.2337C60.7535 32.2337 59.9321 32.7592 59.3851 33.8102C58.838 34.8302 58.5406 36.3287 58.4928 38.3057H64.7768V37.7027C64.7768 36.9317 64.7294 36.2217 64.6346 35.5727C64.556 34.9491 64.3861 34.3508 64.1342 33.8102C63.9253 33.3242 63.6163 32.9233 63.2419 32.6522C62.8844 32.3742 62.4202 32.2337 61.8492 32.2337Z"/><path fill-rule="evenodd" d="M127.948 42.8595C126.498 46.014 124.246 47.4045 121.879 47.4045C117.146 47.4045 113.621 43.0845 113.621 36.6045V36.2835C113.621 35.9775 113.63 35.697 113.645 35.403L134.052 35.4435V15.036L121.862 26.4555L109.735 15V57H134.052V47.4045C131.697 47.3925 129.555 46.002 127.948 42.8595Z" clip-rule="evenodd"/><path fill-rule="evenodd" d="M121.88 43.8856C124.264 43.8856 125.723 42.2851 125.915 38.6836H117.253C117.632 41.9266 119.562 43.8856 121.88 43.8856ZM129.984 38.6836H138.75C138.371 41.9266 136.335 43.8841 134.016 43.8841C131.634 43.8841 130.174 42.2851 129.984 38.6836Z" clip-rule="evenodd"/><path d="M218.815 28.6202V43.0802L225.314 28.6202H229.1V51.9302H224.993V37.5182L218.494 51.9317H214.709V28.6202H218.815ZM212.208 28.6202V32.9762H205.637V51.9317H201.387V28.6202H212.208ZM187.535 28.6202V43.0802L194.034 28.6202H197.82V51.9302H193.713V37.5182L187.213 51.9317H183.428V28.6202H187.535ZM179.855 28.6202V51.9302H175.605V42.1982H169.927V51.9317H165.678V28.6202H169.927V37.8422H175.605V28.6202H179.855ZM150.993 36.8222V51.9317H146.673V19.7222H150.993V34.5527L158.671 19.7222H163.063L155.064 35.0612L163.885 51.9317H158.849L150.993 36.8222Z"/></g></g><defs><clipPath id="clip0_10663_12901"><path fill="#fff" d="M0 0H230V60H0z"/></clipPath></defs></svg>