<svg xmlns="http://www.w3.org/2000/svg" width="160" height="48" fill="none" viewBox="0 0 160 48"><g clip-path="url(#clip0_3001_1204)"><mask id="mask0_3001_1204" width="140" height="30" x="10" y="9" maskUnits="userSpaceOnUse" style="mask-type:luminance"><path fill="#fff" d="M10 9H150V39H10V9Z"/></mask><g fill="#7a7a7a" mask="url(#mask0_3001_1204)"><path d="M54.93 18H55.03C56.32 18 57.38 18.47 58.28 19.44C59.21 20.44 59.67 21.58 59.69 22.94C59.7234 23.6252 59.6155 24.3099 59.3729 24.9516C59.1304 25.5933 58.7583 26.1783 58.28 26.67C57.8813 27.1383 57.3843 27.5128 56.8242 27.7669C56.2642 28.021 55.655 28.1484 55.04 28.14L54.77 28.13C54.1454 28.1144 53.5313 27.9654 52.969 27.6928C52.4067 27.4203 51.9093 27.0307 51.51 26.55C50.6176 25.5673 50.1409 24.2769 50.18 22.95C50.2 21.56 50.68 20.41 51.61 19.45C52.0323 18.991 52.5457 18.6249 53.1173 18.3753C53.6889 18.1256 54.3063 17.9978 54.93 18ZM59.74 17.2C58.4954 16.0332 56.8655 15.3642 55.16 15.32C54.1574 15.2731 53.1568 15.4487 52.2301 15.8343C51.3034 16.2198 50.4735 16.8057 49.8 17.55C49.0751 18.2788 48.5034 19.1453 48.1187 20.0985C47.734 21.0517 47.544 22.0722 47.56 23.1C47.56 25.17 48.26 26.98 49.63 28.46C50.2708 29.1831 51.0552 29.7647 51.9334 30.1676C52.8115 30.5705 53.764 30.7859 54.73 30.8H55C56.92 30.8 58.64 30.07 60.11 28.6C60.8439 27.8851 61.4204 27.0248 61.8026 26.0743C62.1849 25.1238 62.3645 24.1039 62.33 23.08V9H59.73V17.2H59.74ZM73.96 24.47C73.96 25.53 73.58 26.42 72.82 27.21C72.4842 27.5714 72.0771 27.8593 71.6245 28.0556C71.1718 28.2518 70.6834 28.352 70.19 28.35C69.696 28.3529 69.2066 28.254 68.7525 28.0596C68.2983 27.8652 67.889 27.5794 67.55 27.22C67.1869 26.8613 66.9004 26.4326 66.7079 25.9599C66.5153 25.4872 66.4208 24.9803 66.43 24.47V15.86H63.78V24.25C63.78 26.17 64.38 27.79 65.58 29.08C66.1685 29.7098 66.8833 30.2081 67.6778 30.5424C68.4722 30.8768 69.3283 31.0395 70.19 31.02C72.03 31.02 73.57 30.37 74.77 29.08C75.9953 27.7757 76.6534 26.0388 76.6 24.25V15.85H73.96V24.47ZM84.92 18.51C85.5355 18.5043 86.1451 18.6308 86.7075 18.8809C87.2699 19.1311 87.7721 19.4991 88.18 19.96C89.11 20.96 89.58 22.1 89.59 23.46C89.6148 24.149 89.501 24.8359 89.2553 25.48C89.0097 26.1242 88.6372 26.7125 88.16 27.21C87.7556 27.6767 87.2546 28.0498 86.6917 28.3036C86.1288 28.5575 85.5175 28.6859 84.9 28.68H84.66C84.0311 28.6559 83.4142 28.5002 82.8493 28.2229C82.2843 27.9456 81.7837 27.5528 81.38 27.07C80.492 26.0865 80.0253 24.7939 80.08 23.47C80.11 22.08 80.58 20.93 81.51 19.97C81.9445 19.5021 82.4728 19.1311 83.0603 18.8813C83.6479 18.6314 84.2816 18.5083 84.92 18.52V18.51ZM90.2 18.25C89.5514 17.5223 88.7609 16.9349 87.877 16.5239C86.9931 16.1129 86.0344 15.887 85.06 15.86C84.0556 15.8076 83.0521 15.9786 82.1218 16.3608C81.1915 16.7429 80.3575 17.3267 79.68 18.07C78.9551 18.7988 78.3834 19.6653 77.9987 20.6185C77.614 21.5717 77.424 22.5922 77.44 23.62C77.44 25.67 78.14 27.48 79.53 28.98C80.1686 29.7002 80.9478 30.282 81.8198 30.6896C82.6917 31.0972 83.6379 31.322 84.6 31.35H84.87C86.69 31.35 88.29 30.71 89.64 29.45V31.03H92.22V23.6C92.268 22.6159 92.1134 21.6324 91.766 20.7105C91.4185 19.7885 90.8855 18.9477 90.2 18.24V18.25ZM93.66 30.51H96.28V9H93.66V30.5V30.51ZM110.08 22.96C110.126 24.2831 109.652 25.5716 108.76 26.55C108.348 27.041 107.835 27.4383 107.257 27.7152C106.679 27.9921 106.048 28.1421 105.407 28.1554C104.766 28.1687 104.129 28.0448 103.54 27.792C102.951 27.5393 102.422 27.1636 101.99 26.69C101.51 26.1934 101.137 25.6033 100.894 24.9565C100.652 24.3097 100.545 23.6199 100.58 22.93C100.6 21.58 101.06 20.44 101.98 19.43C102.392 18.9696 102.898 18.6035 103.464 18.3567C104.03 18.1099 104.643 17.9882 105.26 18C106.59 18 107.7 18.48 108.64 19.47C109.1 19.9271 109.465 20.4709 109.714 21.0699C109.963 21.6689 110.091 22.3113 110.09 22.96H110.08ZM105.11 15.35C103.33 15.41 101.8 16.04 100.53 17.22V9H97.93V23.06C97.88 25.19 98.63 27.06 100.15 28.6C100.802 29.3007 101.592 29.8602 102.469 30.2437C103.346 30.6273 104.293 30.8268 105.25 30.83H105.55C107.55 30.75 109.27 29.95 110.65 28.46C112.01 27.0095 112.756 25.0884 112.73 23.1C112.73 20.96 111.97 19.1 110.47 17.55C109.794 16.8112 108.963 16.2309 108.036 15.8506C107.109 15.4703 106.11 15.2993 105.11 15.35ZM120.68 18.54H120.78C122.06 18.54 123.11 19.01 124.01 19.98C124.913 20.9244 125.427 22.1739 125.45 23.48C125.469 24.1655 125.351 24.8479 125.102 25.4869C124.853 26.1258 124.478 26.7083 124 27.2C123.601 27.6678 123.104 28.0419 122.544 28.296C121.984 28.55 121.375 28.6777 120.76 28.67H120.49C119.865 28.6532 119.25 28.5026 118.688 28.2283C118.125 27.954 117.628 27.5625 117.23 27.08C116.344 26.099 115.878 24.8105 115.93 23.49C115.95 22.09 116.42 20.94 117.36 19.98C117.779 19.5193 118.29 19.152 118.86 18.9022C119.431 18.6523 120.047 18.5255 120.67 18.53L120.68 18.54ZM120.88 15.86C119.878 15.8158 118.879 15.9937 117.954 16.381C117.029 16.7683 116.201 17.3553 115.53 18.1C114.806 18.8276 114.235 19.6925 113.851 20.6438C113.466 21.5952 113.275 22.6139 113.29 23.64C113.29 25.71 113.99 27.52 115.36 29.01C116.002 29.7313 116.787 30.311 117.665 30.7121C118.543 31.1133 119.495 31.3271 120.46 31.34L120.74 31.35C122.68 31.35 124.38 30.61 125.81 29.14C126.535 28.4168 127.109 27.556 127.497 26.608C127.885 25.6601 128.08 24.6442 128.07 23.62C128.07 21.56 127.37 19.76 125.98 18.25C125.341 17.5211 124.558 16.9324 123.68 16.5211C122.802 16.1098 121.849 15.8847 120.88 15.86ZM136.05 18.54H136.15C137.42 18.54 138.48 19.01 139.38 19.98C140.279 20.9259 140.789 22.1752 140.81 23.48C140.832 24.1665 140.716 24.8503 140.468 25.4911C140.221 26.1318 139.847 26.7163 139.37 27.21C138.971 27.6777 138.474 28.0519 137.914 28.306C137.354 28.56 136.745 28.6877 136.13 28.68H135.87C135.243 28.6646 134.626 28.5147 134.062 28.2404C133.498 27.966 132.999 27.5737 132.6 27.09C131.714 26.109 131.248 24.8205 131.3 23.5C131.33 22.1 131.8 20.95 132.73 19.99C133.15 19.528 133.663 19.16 134.235 18.9101C134.807 18.6602 135.426 18.5341 136.05 18.54ZM136.25 15.86C135.248 15.8165 134.249 15.9948 133.325 16.382C132.4 16.7692 131.572 17.3558 130.9 18.1C130.176 18.8276 129.605 19.6925 129.221 20.6438C128.836 21.5952 128.645 22.6139 128.66 23.64C128.66 25.71 129.36 27.52 130.72 29.01C131.362 29.7313 132.147 30.311 133.025 30.7121C133.903 31.1133 134.855 31.3271 135.82 31.34L136.1 31.35C138.04 31.35 139.75 30.61 141.17 29.14C141.897 28.4173 142.472 27.5568 142.862 26.6089C143.251 25.661 143.448 24.6449 143.44 23.62C143.44 21.56 142.74 19.76 141.34 18.25C140.702 17.5223 139.921 16.9344 139.045 16.5231C138.169 16.1118 137.217 15.886 136.25 15.86Z"/><path d="M147.2 15.9V9H144.75V15.9H142.32V18.43H144.75V30.8H147.2V18.43H149.63V15.9H147.2ZM49.2997 36.43H50.6197C51.7497 36.43 51.7497 34.73 50.6197 34.73H49.2997V36.43ZM50.6197 37.27H49.2997V38.69H48.4097V33.86H50.6197C52.9197 33.86 52.9197 37.26 50.6197 37.26V37.27ZM64.6597 34.87L63.7897 36.92H65.5297L64.6597 34.87ZM65.8797 37.77H63.4297L63.0297 38.67H62.0697L64.1697 33.86H65.1397L67.2397 38.68H66.2797L65.8797 37.77ZM77.4697 34.71V36.25H78.8097C79.3797 36.25 79.6097 35.87 79.6097 35.48C79.6097 35.1 79.3697 34.71 78.8097 34.71H77.4697ZM80.7297 38.69H79.6797L78.3197 37.07H77.4697V38.69H76.5797V33.86H78.8097C79.9097 33.87 80.4997 34.63 80.4997 35.46C80.4997 36.12 80.1997 36.79 79.3097 36.98L80.7297 38.62V38.69ZM91.7297 34.69H90.2397V33.86H94.0997V34.68H92.5997V38.68H91.7197V34.68L91.7297 34.69ZM106.91 33.86H107.8V38.69H107.25L104.79 35.43V38.69H103.9V33.86H104.62L106.92 36.86V33.86H106.91ZM131.25 34.71V36.25H132.59C133.16 36.25 133.39 35.87 133.39 35.48C133.39 35.1 133.15 34.71 132.59 34.71H131.25ZM134.51 38.69H133.46L132.1 37.07H131.25V38.69H130.36V33.86H132.59C133.69 33.87 134.28 34.63 134.28 35.46C134.28 36.12 133.98 36.79 133.09 36.98L134.51 38.62V38.69ZM147.18 35.19C147.02 34.91 146.58 34.65 146.08 34.65C145.42 34.65 145.1 34.93 145.1 35.29C145.1 35.71 145.58 35.83 146.15 35.89C147.12 36.02 148.03 36.29 148.03 37.43C148.03 38.51 147.11 38.97 146.06 38.97C145.11 38.97 144.37 38.67 144.02 37.78L144.76 37.39C144.96 37.92 145.51 38.16 146.08 38.16C146.63 38.16 147.16 37.96 147.16 37.43C147.16 36.98 146.69 36.79 146.07 36.73C145.12 36.61 144.23 36.34 144.23 35.26C144.23 34.26 145.18 33.86 146.05 33.86C146.77 33.86 147.53 34.06 147.89 34.81L147.19 35.18L147.18 35.19ZM121.07 38.68H117.56V33.86H121.06V34.74H118.44V35.84H120.97V36.7H118.44V37.78H121.07V38.68Z"/><path fill-rule="evenodd" d="M25.8998 9.0401C25.1974 8.98956 24.4923 8.98956 23.7898 9.0401V19.2501C22.6423 18.2182 21.1531 17.6482 19.6098 17.6501C17.9916 17.6562 16.4377 18.2848 15.2704 19.4056C14.103 20.5264 13.4118 22.0534 13.3398 23.6701H15.4598C15.5329 22.6167 16.001 21.6298 16.7704 20.9067C17.5399 20.1836 18.554 19.7777 19.6098 19.7701C20.4883 19.7703 21.3441 20.0492 22.0539 20.5668C22.7637 21.0843 23.291 21.8138 23.5598 22.6501C23.7298 21.8001 24.0598 20.9901 24.5398 20.2701L24.6198 20.1601C24.9198 19.7201 25.2698 19.3301 25.6598 18.9801L25.8998 18.7601V11.1601C29.0781 11.4144 32.0475 12.8439 34.2286 15.1696C36.4097 17.4953 37.6458 20.5503 37.6958 23.7383C37.7458 26.9264 36.606 30.0186 34.4989 32.4115C32.3918 34.8045 29.4686 36.3263 26.2998 36.6801V38.8201C29.7506 38.5026 32.9793 36.9802 35.4198 34.5201C36.8102 33.1326 37.9115 31.483 38.6599 29.6669C39.4083 27.8508 39.7889 25.9043 39.7798 23.9401C39.7798 16.0401 33.6398 9.5601 25.8998 9.0401Z" clip-rule="evenodd"/><path fill-rule="evenodd" d="M19.6098 28.1299C18.5519 28.1295 17.5338 27.7259 16.7629 27.0014C15.9919 26.2769 15.526 25.2858 15.4598 24.2299H13.3398C13.4093 25.8484 14.0994 27.3779 15.267 28.5008C16.4346 29.6237 17.9899 30.2537 19.6098 30.2599C20.7998 30.263 21.9659 29.9257 22.9705 29.2878C23.9751 28.65 24.7764 27.7382 25.2798 26.6599C25.6391 25.9013 25.8431 25.0785 25.8798 24.2399H25.9198C25.8686 23.5643 25.989 22.8866 26.2698 22.2699C26.5942 21.5308 27.1257 20.9014 27.8 20.4578C28.4743 20.0142 29.2627 19.7753 30.0698 19.7699C31.1295 19.7679 32.1501 20.1703 32.9232 20.8951C33.6963 21.6198 34.1636 22.6123 34.2298 23.6699H36.3498C36.2779 22.0533 35.5867 20.5262 34.4193 19.4054C33.252 18.2847 31.6981 17.656 30.0798 17.6499C29.042 17.6464 28.0198 17.9025 27.1063 18.3951C26.1929 18.8876 25.4171 19.6009 24.8498 20.4699C24.2098 21.4199 23.8498 22.5299 23.7998 23.6699H23.7698V24.2399C23.6967 25.295 23.2272 26.2834 22.4556 27.0067C21.684 27.7301 20.6675 28.1349 19.6098 28.1399V28.1299Z" clip-rule="evenodd"/><path fill-rule="evenodd" d="M36.3499 24.2401H34.2299C34.1567 25.2952 33.6872 26.2835 32.9156 27.0069C32.144 27.7302 31.1275 28.135 30.0699 28.1401C29.1943 28.1385 28.3418 27.86 27.6341 27.3445C26.9264 26.829 26.3999 26.1029 26.1299 25.2701C25.9599 26.1101 25.6299 26.9201 25.1499 27.6401L25.0699 27.7501C24.7699 28.1901 24.4199 28.5801 24.0299 28.9301L23.7899 29.1501V36.7101C20.5937 36.4431 17.6161 34.9795 15.4525 32.6119C13.2888 30.2443 12.0986 27.1473 12.1199 23.9401C12.1199 17.3801 17.0499 11.9601 23.3799 11.2101V9.08008C20.5726 9.37251 17.9056 10.4542 15.6877 12.1998C13.4698 13.9454 11.7918 16.2836 10.8479 18.9436C9.90407 21.6035 9.733 24.4765 10.3545 27.2296C10.9761 29.9828 12.3648 32.5036 14.3599 34.5001C15.8572 36.0121 17.6636 37.1827 19.6554 37.9318C21.6471 38.6808 23.7772 38.9907 25.8999 38.8401V28.6401C27.0474 29.672 28.5366 30.242 30.0799 30.2401C31.6965 30.2341 33.2489 29.6069 34.416 28.4882C35.5831 27.3695 36.2754 25.845 36.3499 24.2301V24.2401Z" clip-rule="evenodd"/></g></g><defs><clipPath id="clip0_3001_1204"><path fill="#fff" d="M0 0H140V30H0z" transform="translate(10 9)"/></clipPath></defs></svg>