<svg xmlns="http://www.w3.org/2000/svg" width="160" height="48" fill="none" viewBox="0 0 160 48"><g fill="#7a7c7f" clip-path="url(#clip0_2069_770)"><path d="M48.0394 24.8321C48.0872 24.7896 48.1422 24.7561 48.2018 24.7331C48.2617 24.7067 48.3256 24.6905 48.3908 24.685C48.54 24.6614 48.6926 24.6734 48.8364 24.7198C48.9802 24.7663 49.1112 24.846 49.2188 24.9525C49.3005 25.0636 49.3557 25.192 49.3801 25.3279C49.4046 25.4639 49.3977 25.6036 49.3598 25.7364C49.1904 26.4108 48.8831 27.0422 48.4573 27.5906C47.9541 28.2647 47.3538 28.8598 46.6763 29.3564C45.9269 29.9103 45.1066 30.3603 44.2377 30.6942C43.3324 31.0499 42.3738 31.2498 41.4024 31.2855C40.7479 31.3177 40.0924 31.2482 39.459 31.0795C38.8913 30.9314 38.3553 30.6802 37.8776 30.3383C37.4224 30.0116 37.0338 29.6002 36.7328 29.1263C36.4234 28.6391 36.2185 28.0923 36.1312 27.521C35.9768 26.7109 35.9606 25.8804 36.0833 25.0649C36.1984 24.2615 36.4698 23.4887 36.8819 22.7907C37.4337 21.8681 38.2228 21.112 39.1661 20.6021C40.1867 20.0206 41.4841 19.6987 43.0583 19.6362C44.1924 19.5899 45.0248 19.7789 45.5555 20.2035C46.0945 20.6452 46.4388 21.2824 46.5139 21.9773C46.5954 22.5628 46.4911 23.1592 46.2157 23.6816C45.9161 24.2584 45.5041 24.7688 45.0044 25.1826C44.4427 25.653 43.8147 26.0371 43.1409 26.3224C42.3893 26.6424 41.5988 26.861 40.7901 26.9725C40.9046 27.3728 41.1277 27.7332 41.4344 28.0133C41.7779 28.288 42.2069 28.432 42.6457 28.42C43.7267 28.3577 44.7631 27.9657 45.6167 27.2963C46.5362 26.5941 47.3518 25.7645 48.0394 24.8321ZM40.625 25.0461C40.9853 25.0174 41.3355 24.9126 41.6527 24.7385C41.9541 24.5763 42.2246 24.3616 42.4513 24.1044C42.6592 23.8675 42.8241 23.5959 42.9385 23.3017C43.044 23.0604 43.0879 22.7965 43.0663 22.5338C43.0438 22.3919 43.0008 22.2539 42.9385 22.1245C42.903 22.0651 42.8504 22.018 42.7876 21.9894C42.7249 21.9607 42.655 21.9519 42.5871 21.964C42.3479 21.982 42.1205 22.0757 41.9375 22.2315C41.6993 22.419 41.4918 22.6429 41.3225 22.895C41.121 23.194 40.9623 23.5201 40.8513 23.8636C40.7225 24.2455 40.6463 24.6434 40.625 25.0461Z"/><path d="M56.9235 18.9682C56.9477 19.2194 56.9112 19.4727 56.817 19.7067C56.7189 19.9699 56.5855 20.2183 56.4204 20.4451C56.2555 20.671 56.0602 20.8727 55.84 21.0445C55.6546 21.1987 55.431 21.2994 55.1931 21.3361C54.9298 21.3859 54.6608 21.3967 54.3944 21.3682C54.1282 21.3441 53.8167 21.312 53.4812 21.2719C53.2684 21.8267 53.0836 22.3919 52.9275 22.9655C52.6497 23.9678 52.4292 24.9852 52.2673 26.0129C52.1954 26.4517 52.1714 26.8155 52.1608 27.1018C52.1448 27.4764 52.2327 27.7118 52.427 27.8108C52.6405 27.9147 52.8772 27.9608 53.1139 27.9446C53.468 27.9001 53.809 27.7816 54.1149 27.5968C54.6074 27.3224 55.0561 26.9751 55.446 26.5667C55.5848 26.4462 55.7147 26.3156 55.8347 26.1761C55.9811 26.0102 56.6333 25.2129 56.7931 25.047C56.9528 24.8811 57.0966 24.7367 57.235 24.6163C57.3174 24.5234 57.4261 24.458 57.5465 24.429C57.7311 24.4489 57.9078 24.5151 58.0603 24.6216C58.1509 24.6796 58.2266 24.7583 58.2812 24.8513C58.3358 24.9443 58.3678 25.049 58.3745 25.1567C58.4454 25.6918 58.244 26.2572 57.7701 26.853C57.084 27.7068 56.3053 28.4813 55.4486 29.162C54.702 29.6853 53.8981 30.1207 53.0526 30.4596C52.3094 30.78 51.517 30.97 50.7099 31.0215C50.1552 31.0329 49.6111 30.8681 49.1551 30.5506C48.6478 30.2243 48.2427 29.7605 47.9864 29.2128C47.9038 29.0155 47.8353 28.8126 47.7814 28.6055C47.7268 28.3788 47.7053 28.1454 47.7175 27.9125C47.7175 27.6093 47.7335 27.216 47.7654 26.7326C47.7974 26.2492 47.8515 25.7088 47.9278 25.1112C47.997 24.5119 48.0858 23.8707 48.194 23.1875C48.3112 22.5053 48.4603 21.815 48.628 21.1113C48.2587 21.0195 47.9089 20.8618 47.595 20.6458C47.4612 20.5553 47.3486 20.4366 47.2649 20.298C47.1812 20.1594 47.1286 20.0042 47.1105 19.8431C47.0664 19.5889 47.0819 19.3278 47.1558 19.0806C47.2234 18.8951 47.3521 18.7384 47.5205 18.6365C47.7288 18.5194 47.9574 18.4431 48.194 18.4117C48.4603 18.3636 48.7877 18.3154 49.1445 18.2646C49.1982 18.2636 49.2517 18.2574 49.3042 18.2459C49.3666 18.2339 49.4298 18.2267 49.4932 18.2244C49.6893 17.6267 49.9213 17.0414 50.1881 16.472C50.4265 15.9604 50.7089 15.4707 51.032 15.0085C51.294 14.6247 51.6169 14.2866 51.9877 14.0078C52.2951 13.7721 52.6665 13.6359 53.0526 13.6172C53.5474 13.5982 54.0401 13.6896 54.4956 13.8848C54.9524 14.0549 55.3733 14.3099 55.7362 14.6366C56.065 14.9066 56.2861 15.2864 56.3591 15.7068C56.3918 15.8758 56.3675 16.0509 56.2899 16.2044C56.1994 16.3585 56.0922 16.502 55.9705 16.6325C55.832 16.7797 55.6696 16.9563 55.4886 17.1676C55.2746 17.4146 55.0872 17.6837 54.9295 17.9703L56.2021 17.9194C56.3206 17.9128 56.4376 17.9487 56.5322 18.0208C56.6268 18.0928 56.6928 18.1963 56.7185 18.3127C56.8057 18.5248 56.8743 18.7442 56.9235 18.9682Z"/><path d="M65.7581 9.93513C66.9399 9.85713 68.1248 10.0313 69.235 10.4462C70.1341 10.7897 70.9586 11.3048 71.6629 11.9632C72.2603 12.5236 72.7385 13.1998 73.0686 13.9511C73.3436 14.545 73.4915 15.1904 73.5025 15.8454C73.4846 16.5859 73.2959 17.3122 72.9514 17.9671C72.5861 18.6707 72.1146 19.3132 71.5538 19.872C70.9566 20.4738 70.2888 21.0003 69.5651 21.4399C68.8173 21.8959 68.0229 22.27 67.1957 22.5556C67.6876 22.9119 68.1245 23.3392 68.4922 23.8238C68.9217 24.3696 69.3255 24.91 69.7035 25.4451C70.0816 25.9802 70.425 26.4431 70.7338 26.8337C71.0444 27.2226 71.316 27.4125 71.5485 27.4036C71.6603 27.3851 71.7671 27.3437 71.8623 27.2821C71.9576 27.2204 72.0392 27.1397 72.1022 27.0451C72.2965 26.815 72.5148 26.5608 72.7598 26.2826C73.0092 26.0021 73.2827 25.7443 73.5771 25.512C73.8821 25.2739 74.2558 25.1415 74.642 25.1348C74.7117 25.1229 74.7831 25.126 74.8515 25.144C74.9199 25.162 74.9837 25.1944 75.0386 25.2391C75.1124 25.3257 75.1652 25.4283 75.1931 25.5388C75.2351 26.042 75.1365 26.547 74.9082 26.9969C74.6286 27.6167 74.246 28.184 73.7767 28.6745C73.2338 29.2421 72.6048 29.7199 71.9132 30.0898C71.1554 30.5018 70.3118 30.7291 69.4506 30.7534C68.4496 30.7944 67.7042 30.6463 67.2143 30.3092C66.6635 29.8923 66.2439 29.3248 66.0057 28.6745C65.6912 28.0437 65.3929 27.405 65.1112 26.7588C64.8725 26.2103 64.6059 25.6745 64.3125 25.1535C64.0635 24.7029 63.7485 24.2926 63.378 23.9361C62.9979 23.5906 62.5313 23.3557 62.0283 23.2565C61.6211 23.2105 61.2393 23.0342 60.9394 22.7535C60.6632 22.5065 60.4457 22.2002 60.3032 21.8573C60.2446 21.7198 60.2145 21.5719 60.2145 21.4225C60.2145 21.273 60.2446 21.1251 60.3032 20.9877C60.4176 20.7202 60.6865 20.5837 61.1018 20.5676C61.4201 20.5467 61.7393 20.5467 62.0576 20.5676C62.3238 20.5917 62.5687 20.6185 62.7977 20.6452L63.5005 20.7228C63.7659 20.7481 64.0328 20.7544 64.2992 20.7416C65.3211 20.6946 66.3037 20.3321 67.1132 19.7035C67.4658 19.4237 67.763 19.0797 67.989 18.6894C68.2086 18.3208 68.3296 17.9015 68.3405 17.4721C68.3447 17.1275 68.309 16.7836 68.234 16.4473C68.1578 16.0699 68.0056 15.712 67.7867 15.3959C67.5437 15.0562 67.2184 14.7845 66.8416 14.6066C66.3516 14.3859 65.8139 14.2938 65.2789 14.339C65.0882 14.3462 64.8981 14.3632 64.7092 14.3899C64.5167 14.415 64.3257 14.4498 64.1368 14.4942C63.5565 14.6096 62.9832 14.7578 62.4196 14.9384C61.8551 15.1194 61.2809 15.2686 60.6998 15.3852L59.9544 15.5216C59.7092 15.5677 59.4609 15.5955 59.2116 15.6046C58.866 15.6285 58.5195 15.5745 58.1973 15.4467C57.93 15.3367 57.6847 15.1789 57.4732 14.9812C57.2955 14.8087 57.1527 14.6034 57.0525 14.3765C56.9597 14.182 56.9124 13.9688 56.9141 13.7531C56.9319 13.218 57.2132 12.7257 57.758 12.2762C58.3823 11.7799 59.0803 11.3853 59.8266 11.107C60.7403 10.7543 61.6839 10.4857 62.6459 10.3044C63.6726 10.1027 64.7129 9.97931 65.7581 9.93513ZM61.7168 13.7397C61.9937 13.7352 62.2692 13.7787 62.5314 13.8682C62.8308 13.9641 63.1157 14.1009 63.378 14.2748C63.6424 14.4478 63.8847 14.6526 64.0995 14.8848C64.2968 15.0954 64.437 15.3534 64.5068 15.634C64.5233 15.8661 64.4793 16.0985 64.379 16.3082C64.2666 16.5985 64.153 16.8884 64.0383 17.1778C63.641 18.0438 63.2952 18.9327 63.0027 19.8399C62.6876 20.8069 62.4211 21.7892 62.204 22.783C61.9883 23.7917 61.8126 24.7976 61.6849 25.801C61.5571 26.8043 61.4772 27.7434 61.4506 28.6183L61.5091 29.726C61.5295 30.0086 61.5071 30.2928 61.4426 30.5687C61.3896 30.79 61.2604 30.9853 61.0779 31.1199C60.8157 31.2736 60.516 31.3505 60.2126 31.342C59.2684 31.3794 58.5745 31.0601 58.1308 30.3841C57.8672 29.8422 57.6877 29.2629 57.5983 28.6665C57.4735 27.9272 57.405 27.1795 57.3933 26.4297C57.3774 25.6271 57.3933 24.795 57.4519 23.9281C57.5105 23.0612 57.5956 22.2104 57.7181 21.3757C57.8406 20.5409 57.9684 19.7703 58.1174 19.0346C58.243 18.3906 58.4057 17.7546 58.6046 17.1296C58.799 16.5678 58.9933 16.0781 59.1823 15.6607C59.3476 15.2844 59.5644 14.9332 59.8266 14.6173C60.0463 14.3526 60.3182 14.1367 60.6253 13.9832C60.9685 13.8277 61.3403 13.7457 61.7168 13.7424V13.7397Z"/><path d="M83.8643 26.2214C83.2342 27.1952 82.4136 28.03 81.4523 28.6749C80.97 28.998 80.454 29.2671 79.9135 29.4775C78.9099 29.887 77.7979 29.9426 76.7588 29.6354C76.2575 29.4946 75.7833 29.2703 75.3558 28.9719C74.9413 28.6869 74.5806 28.33 74.2909 27.9177C74.0116 27.5139 73.8293 27.0505 73.7584 26.5639C73.6205 25.6236 73.696 24.6641 73.9794 23.7573C74.2578 22.8102 74.6905 21.9161 75.2599 21.1112C75.8074 20.3284 76.491 19.6513 77.2779 19.1126C77.9951 18.6024 78.8417 18.3074 79.7192 18.2618C79.9874 18.2523 80.2557 18.2765 80.5179 18.334C80.7674 18.3849 81.0045 18.4849 81.2154 18.6283C81.4671 18.5635 81.7251 18.5258 81.9848 18.5159C82.3108 18.4837 82.64 18.517 82.9531 18.6139C83.2662 18.7108 83.5569 18.8694 83.8084 19.0805C84.2588 19.4873 84.5902 20.01 84.7668 20.5922C84.9555 21.2037 85.0322 21.8446 84.9931 22.4837C84.9728 23.0752 84.8521 23.6588 84.6364 24.2094C84.7003 24.2795 84.7781 24.3355 84.8647 24.3737C84.9513 24.4119 85.0449 24.4316 85.1395 24.4315C85.4782 24.4007 85.7933 24.2443 86.0234 23.9927C86.3109 23.7252 86.5718 23.4576 86.8061 23.1901C86.8984 23.0766 86.998 22.9693 87.1043 22.869C87.1665 22.7986 87.2512 22.7522 87.3439 22.7379C87.5787 22.744 87.8057 22.8235 87.9935 22.9653C88.1365 23.09 88.2309 23.2616 88.2597 23.4496C88.3029 23.798 88.2378 24.1512 88.0733 24.4609C87.8925 24.8269 87.6553 25.1619 87.3705 25.4536C87.0719 25.7611 86.7269 26.0194 86.3482 26.2188C85.9888 26.4146 85.5904 26.5271 85.1821 26.5479C84.7215 26.5612 84.266 26.4484 83.8643 26.2214ZM79.1601 26.9251C79.4931 26.8953 79.8038 26.7439 80.0334 26.4997C80.295 26.222 80.5002 25.8958 80.6377 25.5392C80.8025 25.121 80.9169 24.6844 80.9784 24.2389C81.0479 23.7739 81.0604 23.3022 81.0157 22.8342C80.7665 22.5631 80.5769 22.2422 80.4593 21.8925C80.3187 21.5428 80.2134 21.1797 80.1452 20.8089V20.7821C80.1452 20.7661 80.1452 20.7554 80.1585 20.7554C80.1718 20.7554 80.1585 20.7366 80.1585 20.7018C79.8196 20.9638 79.5115 21.2636 79.24 21.5955C78.9499 21.9488 78.6973 22.3317 78.4866 22.7379C78.2805 23.1343 78.1214 23.5537 78.0127 23.9874C77.9076 24.3852 77.8858 24.8007 77.9488 25.2074C77.9808 25.368 78.0234 25.5499 78.0713 25.7425C78.1185 25.9383 78.1864 26.1284 78.2736 26.3097C78.3542 26.4791 78.4694 26.6295 78.6117 26.7512C78.7649 26.879 78.9617 26.9414 79.1601 26.9251Z"/><path d="M91.5247 21.9985C91.4899 21.8573 91.5099 21.7081 91.5806 21.5811C91.6841 21.4108 91.8208 21.2633 91.9826 21.1477L93.1061 20.1925C93.0427 20.122 92.9649 20.0659 92.8781 20.0281C92.7914 19.9902 92.6975 19.9715 92.6029 19.9731C92.245 19.9877 91.8987 20.1047 91.6046 20.3102C91.2812 20.5344 91.0186 20.836 90.8405 21.1878C90.6289 21.607 90.4903 22.0594 90.4305 22.5256C90.3552 23.1145 90.3669 23.7113 90.4651 24.2968C90.583 24.8671 90.8442 25.3977 91.2239 25.8379C91.4142 26.0205 91.6397 26.1622 91.8864 26.2542C92.1332 26.3463 92.396 26.3867 92.6588 26.373C93.1649 26.3463 93.6623 26.2304 94.1284 26.0305C95.172 25.5946 96.108 24.9344 96.8705 24.0961C97.2652 23.6721 97.6109 23.2044 97.9008 22.7021C97.9299 22.6164 97.9836 22.5412 98.0551 22.486C98.1267 22.4308 98.2128 22.398 98.3028 22.3918C98.4156 22.3958 98.5262 22.4244 98.6269 22.4757C98.7276 22.527 98.8159 22.5997 98.8858 22.6888C99.0425 22.8359 99.1605 23.0198 99.2292 23.2239C99.2605 23.492 99.2133 23.7635 99.0935 24.0051C98.8298 24.5879 98.4827 25.1287 98.0632 25.6104C96.9788 26.8927 95.6298 27.9225 94.1098 28.6284C93.3558 28.9942 92.5366 29.2043 91.7004 29.2465C90.0232 29.316 88.7569 29.0066 87.9014 28.3181C87.0459 27.6296 86.5037 26.5326 86.2748 25.0272C86.1278 24.1501 86.1852 23.2508 86.4425 22.3998C86.6977 21.5397 87.1284 20.7424 87.7071 20.0587C88.3005 19.356 89.0238 18.7754 89.8369 18.3491C90.7053 17.8982 91.6632 17.6486 92.6402 17.6187H93.1727C93.383 17.6187 93.6359 17.632 93.8994 17.6561C94.1698 17.682 94.4372 17.733 94.6981 17.8086C94.9667 17.886 95.2243 17.9975 95.4648 18.1404C95.7025 18.279 95.9128 18.4604 96.0851 18.6755C96.2723 18.9255 96.4064 19.2114 96.4792 19.5156C96.5674 20.021 96.5674 20.538 96.4792 21.0433C96.4034 21.4697 96.2529 21.8792 96.0346 22.2527C95.8457 22.5721 95.5894 22.8461 95.2838 23.0553C95.0223 23.2438 94.7132 23.3542 94.3919 23.3737C94.1156 23.3805 93.8393 23.3608 93.5667 23.3148C93.2538 23.266 92.9468 23.1844 92.6508 23.0714C92.3773 22.9691 92.1227 22.8217 91.8974 22.6353C91.7048 22.4717 91.5734 22.2471 91.5247 21.9985Z"/><path d="M106.051 28.763C105.468 28.8078 104.883 28.698 104.355 28.4447C103.906 28.2084 103.517 27.8715 103.218 27.4601C102.894 27.0142 102.626 26.5298 102.42 26.018C102.199 25.4828 101.982 24.921 101.767 24.3324C101.734 24.6731 101.694 25.0048 101.647 25.3277C101.602 25.6514 101.552 25.9832 101.498 26.323C101.461 26.5397 101.432 26.8046 101.405 27.1256C101.376 27.4401 101.303 27.7489 101.19 28.0433C101.071 28.3415 100.89 28.61 100.657 28.8299C100.382 29.0681 100.03 29.1966 99.6668 29.1911C99.3738 29.1955 99.086 29.1137 98.8388 28.9557C98.5448 28.7865 98.2759 28.5767 98.0401 28.3323C97.8046 28.0905 97.599 27.821 97.4278 27.5296C97.2777 27.2835 97.1747 27.0112 97.1243 26.727C97.0159 26.1974 97.0159 25.6512 97.1243 25.1217C97.2335 24.608 97.3266 24.0515 97.3905 23.4361C97.4651 23.0241 97.5609 22.3998 97.678 21.5632C97.7978 20.7392 97.9443 19.8321 98.1147 18.8422C98.285 17.8523 98.4927 16.8383 98.735 15.7921C98.9547 14.8188 99.2447 13.8629 99.6028 12.932C99.8839 12.1676 100.271 11.447 100.753 10.7916C100.919 10.5415 101.14 10.3326 101.398 10.1806C101.656 10.0285 101.945 9.9374 102.244 9.914C102.615 9.90537 102.984 9.95778 103.338 10.0692C103.721 10.1828 104.088 10.3427 104.432 10.5454C104.756 10.7388 105.049 10.9796 105.303 11.2598C105.535 11.508 105.691 11.8182 105.753 12.1534C105.788 12.3134 105.778 12.4799 105.726 12.635C105.646 12.844 105.521 13.0324 105.359 13.1862C105.027 13.5444 104.747 13.9479 104.528 14.3848C104.212 14.9804 103.934 15.5951 103.695 16.2256C103.429 16.9158 103.184 17.6382 102.955 18.3981C102.737 19.1082 102.56 19.8299 102.422 20.5599C102.788 20.4452 103.1 20.1996 103.298 19.8696C103.511 19.5307 103.732 19.1829 103.961 18.8262C104.197 18.4628 104.483 18.1349 104.81 17.8523C105.211 17.5393 105.706 17.3732 106.213 17.3814C106.683 17.3543 107.152 17.4263 107.592 17.5927C107.925 17.727 108.218 17.9454 108.441 18.2268C108.619 18.4478 108.739 18.71 108.79 18.9894C108.868 19.3772 108.852 19.7783 108.742 20.1584C108.633 20.5385 108.434 20.8865 108.162 21.1726C107.598 21.7933 106.589 22.4096 105.135 23.0214C105.295 23.3184 105.465 23.61 105.641 23.8963C105.809 24.1734 105.992 24.4413 106.189 24.6989C106.353 24.9189 106.546 25.1144 106.764 25.2795C106.931 25.4125 107.137 25.4842 107.35 25.4828C107.494 25.4828 107.653 25.4721 107.829 25.4507C108.053 25.4182 108.265 25.3258 108.441 25.1832C108.777 24.9384 109.088 24.6615 109.371 24.3565C109.609 24.1058 109.839 23.847 110.06 23.5806L110.55 22.9973C110.59 22.9352 110.643 22.8819 110.704 22.8405C110.765 22.7991 110.834 22.7706 110.907 22.7565C111.138 22.7548 111.368 22.7956 111.586 22.8769C111.699 22.9029 111.799 22.9675 111.87 23.0597C111.941 23.152 111.978 23.2661 111.974 23.3826C111.937 23.9365 111.753 24.4703 111.442 24.929C111.052 25.5694 110.58 26.1558 110.039 26.6735C109.459 27.2348 108.811 27.7195 108.109 28.1156C107.483 28.4911 106.778 28.7129 106.051 28.763Z"/><path d="M122.146 21.8065C122.191 21.763 122.245 21.7293 122.303 21.7075C122.362 21.6812 122.425 21.6649 122.49 21.6594C122.641 21.6368 122.795 21.6492 122.941 21.6955C123.087 21.7419 123.22 21.821 123.331 21.9269C123.418 22.0352 123.48 22.162 123.512 22.2977C123.544 22.4335 123.545 22.5747 123.515 22.7108C123.386 23.379 123.113 24.0108 122.716 24.5623C122.251 25.2358 121.683 25.8316 121.033 26.3281C120.313 26.8829 119.519 27.3332 118.675 27.6659C117.783 28.023 116.836 28.2239 115.877 28.2599C115.22 28.2902 114.562 28.2207 113.925 28.0538C113.347 27.9035 112.798 27.6537 112.304 27.3154C111.833 26.9879 111.423 26.5783 111.095 26.1061C110.763 25.622 110.529 25.0763 110.408 24.5008C110.21 23.6992 110.147 22.8698 110.222 22.0473C110.289 21.2511 110.516 20.4766 110.888 19.7704C111.386 18.85 112.135 18.0909 113.047 17.5819C114.032 16.9986 115.31 16.6757 116.88 16.6133C118.009 16.5687 118.85 16.7578 119.402 17.1805C119.965 17.6168 120.345 18.2499 120.466 18.9544C120.581 19.5297 120.51 20.1267 120.264 20.6587C119.999 21.2329 119.615 21.7437 119.138 22.157C118.598 22.6297 117.987 23.0143 117.328 23.2968C116.591 23.6182 115.815 23.8378 115.019 23.9496C115.158 24.3517 115.399 24.7099 115.72 24.9877C116.072 25.2596 116.506 25.403 116.95 25.3944C118.012 25.3364 119.029 24.9432 119.857 24.2707C120.738 23.5691 121.51 22.7384 122.146 21.8065ZM114.759 22.0152C115.113 21.9888 115.456 21.8837 115.765 21.7075C116.053 21.5468 116.308 21.3325 116.516 21.0761C116.711 20.8377 116.861 20.5657 116.96 20.2734C117.05 20.0283 117.08 19.7647 117.045 19.5056C117.014 19.3635 116.963 19.2265 116.894 19.0989C116.857 19.0389 116.803 18.9915 116.739 18.9628C116.675 18.9342 116.603 18.9257 116.534 18.9384C116.3 18.9563 116.078 19.0501 115.901 19.2059C115.673 19.3947 115.478 19.6197 115.323 19.8721C115.137 20.1712 114.997 20.4968 114.908 20.838C114.802 21.2211 114.751 21.6176 114.759 22.0152Z"/><path d="M130.743 15.9607C130.782 16.2084 130.76 16.4618 130.68 16.6991C130.597 16.9606 130.477 17.2085 130.323 17.4349C130.176 17.6592 129.996 17.8603 129.79 18.0315C129.612 18.1866 129.393 18.2877 129.159 18.3232C128.901 18.3695 128.638 18.3794 128.377 18.3526C128.11 18.3285 127.796 18.2937 127.461 18.2536C127.278 18.8088 127.125 19.3732 127 19.9445C126.878 20.5117 126.777 21.0513 126.697 21.5632C126.617 22.0769 126.558 22.5505 126.521 22.9893C126.484 23.4281 126.468 23.7919 126.473 24.0782C126.473 24.4528 126.582 24.6882 126.779 24.7899C126.996 24.8933 127.235 24.9394 127.474 24.9237C127.821 24.8799 128.155 24.7622 128.454 24.5785C128.924 24.305 129.349 23.9592 129.713 23.5538C129.843 23.4331 129.965 23.3035 130.078 23.1659C130.216 23 130.36 22.8341 130.506 22.6655C130.653 22.497 130.794 22.3578 130.924 22.2348C131.003 22.1432 131.108 22.0787 131.225 22.0502C131.416 22.0714 131.598 22.1384 131.758 22.2455C131.851 22.303 131.931 22.381 131.99 22.4736C132.05 22.5662 132.088 22.6712 132.101 22.7806C132.202 23.3157 132.033 23.8802 131.593 24.4742C131.107 25.1174 130.525 25.6814 129.868 26.1464C129.148 26.6703 128.367 27.1043 127.543 27.4387C126.812 27.7575 126.031 27.9459 125.235 27.9952C124.673 28.0019 124.122 27.8357 123.657 27.5189C123.132 27.1922 122.703 26.7303 122.416 26.1812C122.321 25.9862 122.242 25.784 122.179 25.5765C122.111 25.3518 122.076 25.1184 122.075 24.8835C122.054 24.5812 122.049 24.1879 122.059 23.7063C122.07 23.2247 122.094 22.6816 122.131 22.0823C122.168 21.4829 122.224 20.8435 122.304 20.1612C122.384 19.479 122.488 18.786 122.621 18.085C122.241 17.9938 121.88 17.8352 121.556 17.6168C121.416 17.5278 121.297 17.4104 121.205 17.2721C121.114 17.1339 121.052 16.9779 121.024 16.8142C120.964 16.5627 120.964 16.3005 121.024 16.049C121.077 15.8653 121.197 15.708 121.359 15.6075C121.563 15.4903 121.787 15.414 122.019 15.3828C122.285 15.3346 122.608 15.2891 122.962 15.2383C123.015 15.236 123.069 15.2298 123.121 15.2196C123.183 15.2074 123.245 15.2002 123.308 15.1982C123.47 14.6029 123.669 14.0185 123.904 13.4484C124.113 12.9381 124.368 12.4482 124.666 11.9849C124.906 11.6027 125.211 11.2651 125.565 10.9869C125.863 10.7517 126.226 10.616 126.604 10.5989C127.102 10.5819 127.597 10.6732 128.057 10.8665C128.526 11.0394 128.96 11.2959 129.338 11.6237C129.679 11.8922 129.92 12.2697 130.019 12.6939C130.061 12.859 130.046 13.0334 129.977 13.1888C129.898 13.3442 129.798 13.4882 129.681 13.6169L129.231 14.152C129.03 14.3986 128.857 14.668 128.717 14.9547L129.985 14.9065C130.105 14.9024 130.223 14.9393 130.32 15.0112C130.416 15.0831 130.486 15.1858 130.517 15.3025C130.611 15.5149 130.687 15.7351 130.743 15.9607Z"/><path d="M136.271 23.8622C136.161 23.4744 135.933 23.131 135.619 22.8803C135.244 22.5324 134.836 22.1712 134.402 21.81C133.968 21.4489 133.561 21.0609 133.186 20.681C132.85 20.3687 132.614 19.9638 132.507 19.5171C132.411 19.0657 132.441 18.5964 132.592 18.1606C132.75 17.7265 133.013 17.3391 133.359 17.0342C133.75 16.6946 134.202 16.4331 134.69 16.2637C135.266 16.0647 135.87 15.9556 136.479 15.94C137.454 15.8693 138.431 16.0431 139.322 16.4456C139.662 16.5892 139.963 16.8138 140.198 17.0999C140.432 17.3861 140.594 17.7253 140.669 18.0884C140.729 18.3209 140.729 18.5649 140.669 18.7974C140.612 19.0075 140.513 19.204 140.379 19.3753C140.253 19.539 140.097 19.6762 139.919 19.7793C139.756 19.8742 139.574 19.9292 139.386 19.9399C139.024 19.9671 138.664 19.8658 138.369 19.6536C138.111 19.4585 137.882 19.228 137.688 18.9686C137.501 18.7171 137.339 18.487 137.198 18.2757C137.057 18.0643 136.916 17.96 136.788 17.96C136.396 17.96 136.221 18.1018 136.255 18.3399C136.399 18.8224 136.686 19.2491 137.078 19.5626C137.548 20.0014 138.058 20.4473 138.606 20.9004C139.157 21.3472 139.671 21.7833 140.126 22.2141C140.509 22.519 140.793 22.9316 140.941 23.3993C141.042 23.9083 141.004 24.4352 140.832 24.9244C140.642 25.4527 140.318 25.9221 139.892 26.2862C139.377 26.7275 138.785 27.0686 138.146 27.2922C137.33 27.5755 136.474 27.7281 135.611 27.7444C135.102 27.7641 134.593 27.73 134.091 27.6427C133.049 27.5183 132.064 27.0989 131.25 26.4333C130.593 25.9124 130.131 25.1836 129.938 24.3652C129.864 24.0123 129.864 23.6478 129.938 23.295C130.013 22.9194 130.162 22.5627 130.377 22.2462C130.595 21.9237 130.877 21.6503 131.205 21.4435C131.559 21.2289 131.963 21.1117 132.376 21.1037C132.69 21.1097 132.999 21.1732 133.29 21.291C133.658 21.4218 133.997 21.6235 134.288 21.885C134.428 22.0192 134.555 22.166 134.669 22.3237C134.781 22.4784 134.86 22.6553 134.9 22.8428C134.933 22.9564 134.941 23.076 134.921 23.1928C134.902 23.3096 134.857 23.4204 134.788 23.517C134.66 23.6726 134.506 23.8048 134.333 23.9076C134.165 24.0093 134.006 24.111 133.854 24.21C133.785 24.249 133.73 24.3102 133.699 24.3839C133.668 24.4576 133.663 24.5395 133.684 24.6167C133.711 24.7188 133.762 24.8129 133.833 24.891C133.904 24.9692 133.992 25.0293 134.091 25.0662C134.476 25.199 134.884 25.2456 135.289 25.2026C135.453 25.2142 135.617 25.1831 135.766 25.1124C135.915 25.0416 136.043 24.9336 136.138 24.7986C136.222 24.6596 136.277 24.505 136.3 24.344C136.323 24.1831 136.313 24.0192 136.271 23.8622ZM21.566 36.4211L21.6645 36.4478L21.8296 36.4933L21.8828 36.5067C22.6956 36.6986 23.5266 36.8018 24.3614 36.8144C25.4072 36.7763 26.4464 36.6311 27.4629 36.3809C28.4878 36.1294 29.4489 35.5783 30.3275 35.0592C31.2051 34.5379 31.9751 33.8521 32.5957 33.0392C33.2602 32.1431 33.725 31.1138 33.9587 30.0212C34.0732 29.4701 34.1691 28.9296 34.2543 28.3945C35.1432 28.0911 35.9593 27.6045 36.6503 26.9658C38.2716 25.2481 37.3424 25.125 37.3424 24.903C37.3424 24.6809 36.3601 24.2849 36.1285 24.7424C36.0246 24.9457 35.4416 25.2775 34.6563 25.6093C34.7281 25.0902 34.8027 24.5658 34.8852 24.028C34.9917 23.3485 35.1257 22.635 35.2872 21.8876C35.5375 20.7746 35.8383 19.691 36.1817 18.6342C36.5059 17.6324 36.8864 16.6497 37.3212 15.6911C37.4782 15.3647 37.6087 15.0303 37.7418 14.6985C37.9468 14.1848 37.9468 14.1848 37.8856 13.9306C37.8018 13.4973 37.5804 13.103 37.2546 12.8069C36.9213 12.4782 36.5317 12.2126 36.1045 12.023C35.5732 11.7592 34.969 11.6831 34.3893 11.8069C33.8097 11.9307 33.2885 12.2471 32.9098 12.7052C32.2882 13.4997 31.8269 14.4086 31.5521 15.3808C31.109 16.8227 30.7727 18.2956 30.5458 19.7874C30.2529 21.5532 29.9272 23.6044 29.5687 25.9411C29.5101 26.3103 29.4436 26.6715 29.3744 27.0327H29.3611C28.2828 27.2601 27.5507 27.3885 26.1664 27.747C24.4253 28.1992 21.2705 29.3978 20.0619 30.7944C18.9144 32.1322 18.5311 34.3716 19.8489 35.4552C20.1874 35.7584 20.571 36.0066 20.9856 36.191L21.566 36.4211ZM26.5923 33.272C26.0324 33.7334 25.333 33.9901 24.609 33.9997C24.242 34.0153 23.8745 33.9929 23.5121 33.9328C22.8838 33.7723 22.5723 33.5395 22.607 32.9696C22.6549 32.167 24.1031 31.3643 25.2692 30.9844C26.3577 30.5893 27.4701 30.264 28.5997 30.0105C28.4309 30.5113 28.2272 30.9994 27.99 31.4713C27.6534 32.1648 27.1775 32.7806 26.5923 33.28V33.272ZM37.5927 38.7461C37.0363 38.5187 37.1801 38.211 38.8519 37.6946C40.1618 37.2879 47.0011 34.9255 58.9918 33.6519C65.0936 33.0071 69.1669 32.7556 73.8072 32.472C82.5633 31.9369 94.6418 31.969 102.826 32.2339C115.719 32.6379 128.29 33.2746 128.761 33.3576C129.232 33.4405 129.472 33.5395 128.788 33.9596C128.181 34.3422 121.349 36.4478 120.817 36.6351C120.048 36.9027 120.064 36.9348 116.951 36.5709C103.228 34.9673 89.4192 34.2238 75.6042 34.3449C60.8367 34.5134 52.5625 35.3321 45.5901 37.0685C39.1634 38.6738 39.7331 38.6417 38.9638 38.8932C38.1944 39.1447 38.1864 39.1474 37.7471 38.8932C37.4969 38.7193 37.5927 38.7461 37.5927 38.7461Z"/></g><defs><clipPath id="clip0_2069_770"><path fill="#fff" d="M0 0H122V29.1444H0z" transform="translate(19 9.937)"/></clipPath></defs></svg>